<svg xmlns="http://www.w3.org/2000/svg" xmlns:xlink="http://www.w3.org/1999/xlink" viewBox="0 0 1430.84 765.65"><defs><style>.cls-1{opacity:0.39;}.cls-2{fill:url(#Sfumatura_senza_nome_226);}.cls-3{opacity:0.43;}.cls-4{fill:url(#Sfumatura_senza_nome_241);}.cls-5{opacity:0.42;}.cls-6{fill:url(#Sfumatura_senza_nome_232);}.cls-7{opacity:0.44;}.cls-8{fill:url(#Sfumatura_senza_nome_225);}.cls-9{opacity:0.46;}.cls-10{fill:url(#Sfumatura_senza_nome_225-2);}.cls-11{fill:#c9e6f7;}.cls-12{fill:#1a1a1a;}.cls-13{fill:#4d4d4d;}.cls-14{fill:#333;}.cls-15{fill:#b3b3b3;}.cls-16{fill:gray;}.cls-17{fill:#fff;}.cls-18{fill:#666;}.cls-19{fill:#ccc;}.cls-20{fill:#e6e6e6;}.cls-21{fill:#999;}.cls-22{fill:#e0a263;}.cls-23{fill:#bf8958;}</style><linearGradient id="Sfumatura_senza_nome_226" x1="350.83" y1="149.01" x2="811.31" y2="149.01" gradientUnits="userSpaceOnUse"><stop offset="0" stop-color="#7c3737"/><stop offset="0.99" stop-color="#fff"/></linearGradient><linearGradient id="Sfumatura_senza_nome_241" x1="145.86" y1="321.28" x2="691.28" y2="321.28" gradientUnits="userSpaceOnUse"><stop offset="0" stop-color="#7c3737"/><stop offset="0.99" stop-color="#787878"/></linearGradient><linearGradient id="Sfumatura_senza_nome_232" x1="219.94" y1="491.61" x2="633.22" y2="491.61" gradientUnits="userSpaceOnUse"><stop offset="0" stop-color="#7c3737"/><stop offset="0.99" stop-color="gray"/></linearGradient><linearGradient id="Sfumatura_senza_nome_225" x1="144.96" y1="619.38" x2="551.8" y2="619.38" gradientUnits="userSpaceOnUse"><stop offset="0" stop-color="#7c3737"/><stop offset="0.99"/></linearGradient><linearGradient id="Sfumatura_senza_nome_225-2" x1="638.04" y1="31.46" x2="841.34" y2="31.46" xlink:href="#Sfumatura_senza_nome_225"/></defs><title>hockeyplayer</title><g id="Livello_2" data-name="Livello 2"><g id="Livello_19" data-name="Livello 19"><g class="cls-1"><path class="cls-2" d="M698.79,64A357.18,357.18,0,0,0,555.52,86.75c-17,6.45-33.48,14.2-50.83,19.56-53.68,16.58-113.62,9.8-164.61,33.38a503.51,503.51,0,0,0,65.48-5.06L401,141.12a585.12,585.12,0,0,1,90.27-1.87c-24.54,16.86-57,14-86.68,11.29q-66-5.94-132.34-5.84c-7.87,0-16.69.48-22,6.25q37.16,5.25,74.18,11.42L314,171.13l25.37-.55c5.13-.11,12.53,3.95,9.17,7.84q59-.85,118,1c6.21.19,13.57,1.1,16.43,6.61l-6.87,5.8a48.86,48.86,0,0,0,23,9c5.58.65,11.9.58,15.84,4.58,1.8,1.83,2.84,4.31,4.69,6.09,2.31,2.24,5.57,3.13,8.69,3.94L611.82,237a13.93,13.93,0,0,0,2.55.46c6.27.49,7.28-3.66,7.84-7.33a111.67,111.67,0,0,0-1.4-40.66c-3.18-14.38-8.58-31.43,1.39-42.27,2.49-2.71,5.71-4.65,8.35-7.22,3.51-3.42,5.86-7.85,8.84-11.75,14.78-19.32,42.52-23.12,61.22-38.69,5.28-4.41,10-10.39,10-17.28S703.59,58.55,697.17,61"/></g><g class="cls-3"><path class="cls-4" d="M602.9,246.32c-1.19-9.4-10.13-16.26-19.38-18.34s-18.87-.48-28.28.69A300.68,300.68,0,0,1,453,223.73c-21.33-4.76-43-11.91-64.53-9.83A1.65,1.65,0,0,0,388,217l17,8a1.64,1.64,0,0,1-.53,3.11c-79.86,9-161.31-1.54-240.79,10.2a1.64,1.64,0,0,0-.48,3.09,41.58,41.58,0,0,0,18.61,4,1.64,1.64,0,0,1,.94,3c-23.64,16.54-60.08,7-85.76,20.95a1.64,1.64,0,0,0,.73,3.09l68.93,1.79c16,.41,32.6.73,47.53-4.83a1.65,1.65,0,0,0,.25-3l-4.58-2.67a1.65,1.65,0,0,1,.6-3.05,360.35,360.35,0,0,1,73-2.39,1.64,1.64,0,0,1,1,2.81l-1.4,1.37a1.64,1.64,0,0,0,1.07,2.8,159.42,159.42,0,0,1,36.69,5.94,1.65,1.65,0,0,1,.5,2.94c-15.09,10.35-38.27,2.24-55.27,10a1.66,1.66,0,0,0-.49,2.64,5.62,5.62,0,0,1,.43,6.31c-1.72,2.71-5,3.86-8.11,4.82l-21,6.58a1.64,1.64,0,0,0,.51,3.21q57.68-1,115.28-4.23a1.64,1.64,0,0,0,1-2.83L350,297.1a1.64,1.64,0,0,1,.49-2.69,75.85,75.85,0,0,1,46.18-4.63,1.65,1.65,0,0,1,.81,2.78L391,298.85a1.64,1.64,0,0,0,.58,2.7,36.44,36.44,0,0,1,7.19,3.76,1.65,1.65,0,0,1-.22,2.85c-4,1.94-6.26,7.41-4.65,11.54a1.63,1.63,0,0,1-1.4,2.24,608.7,608.7,0,0,1-180.38-13.8c-8-1.84-17-3.72-24.34-.5a1.64,1.64,0,0,0-.32,2.83h0a1.64,1.64,0,0,1-.7,2.94C151,319.54,112.69,308,78.07,317.19a1.64,1.64,0,0,0,.35,3.23l48.35,1.77c18.14.66,36.33,1.32,54.26,4.13,16.95,2.66,33.54,7.22,50.3,10.89a493.72,493.72,0,0,0,191,3.9,1.62,1.62,0,0,1,1.91,1.78c-.59,4.77,3.09,9.77,7.63,12,5.26,2.54,11.32,2.53,17.1,3.37a58,58,0,0,1,42.63,30.56,1.75,1.75,0,0,1,.18.78l0,4.78a1.64,1.64,0,0,0,.95,1.5l6.53,3a1.63,1.63,0,0,1,.93,1.68A15.56,15.56,0,0,0,506,414.47a1.63,1.63,0,0,1-.69,2.92l-30.9,5.36a1.64,1.64,0,0,0,0,3.24c28,4.16,57.65,6.18,81.54-8.31,15.47-9.38,26.38-24.55,36.85-39.31,4.57-6.44,9.22-13,11.44-20.62,1.16-4,1.63-8.15,3-12.08,2.68-7.94,8.58-14.25,14.52-20.2a1.66,1.66,0,0,0,0-2.38c-8-7.73-1.38-23.15-5.88-34-1.34-3.23-3.68-6-4.58-9.42-1.78-6.71,2.52-13.41,3.6-20.28s-5.42-15.87-11.21-12"/></g><g class="cls-5"><path class="cls-6" d="M549.08,423.11A1098.69,1098.69,0,0,0,424.19,418a1.19,1.19,0,0,0-.55,2.24l5,2.7a1.19,1.19,0,0,1-.36,2.23A489.34,489.34,0,0,1,321.53,431a1.19,1.19,0,0,0-.56,2.26l2.34,1.1a1.19,1.19,0,0,1,.16,2.06c-9.94,6.77-22.53,8.59-34.54,10.17l-94.67,12.47a1.19,1.19,0,0,0-.34,2.26c22.54,10.27,52-3.24,74.74,7.24a1.2,1.2,0,0,1,.29,2l-10.44,8.88a1.19,1.19,0,0,0,.67,2.09,144.45,144.45,0,0,0,44.07-3.19,1.19,1.19,0,0,0,.26-2.23,13,13,0,0,1-3.66-2.49,1.18,1.18,0,0,1,.39-1.92L335,457c8.72-3.7,20.08-6.9,26.79-.6a1.21,1.21,0,0,1,.18,1.57,23.8,23.8,0,0,1-6.89,6.41,1.19,1.19,0,0,0-.17,1.89,18.58,18.58,0,0,0,7,3.86,1.19,1.19,0,0,1,.47,2c-4.45,4.23-10.64,6.36-16.63,8-39.37,10.69-81,7.16-121.67,3.54l-81.14-7.22a1.19,1.19,0,0,0-1,2,27.22,27.22,0,0,0,17.36,8.41,1.18,1.18,0,0,1,.9,1.83,12.2,12.2,0,0,0-1.75,4.4,1.2,1.2,0,0,0,1.15,1.39L183,495a1.19,1.19,0,0,1,.67,2.15h0a1.19,1.19,0,0,0,.6,2.15l50.11,3.82a1.17,1.17,0,0,1,1,1.55,4.9,4.9,0,0,0,1.84,5.25c2.12,1.51,4.91,1.54,7.51,1.52q47.93-.47,95.84-1.4c4-.08,8.09-.21,11.58-2.07,6.71-3.59,10.48-13.15,17.86-13.38a1.18,1.18,0,0,0,1-.56c12.11-19.52,38.13-29.09,60-22.4a1.19,1.19,0,0,1,.3,2.13,13.79,13.79,0,0,0-6.41,11.71,1.17,1.17,0,0,1-.56,1.06,80.41,80.41,0,0,0-23.89,22.25l0,.05c-8.74,14.16-26.76,19-43.15,21.82q-23.46,4-47.23,5.82a1.19,1.19,0,0,0,0,2.37l38.79,3.67a1.18,1.18,0,0,1,1,1.5,10.3,10.3,0,0,1-3.09,4.67,1.19,1.19,0,0,0,.66,2.09,78.76,78.76,0,0,1,24.13,6.11,1.18,1.18,0,0,1,.24,2l-3.17,2.47a1.19,1.19,0,0,0,.56,2.11c17.65,2.55,36.92,4.1,51.21-6.29,5.64-4.11,10-9.75,15-14.56,21.19-20.23,53.83-24.73,75-45,6.48-6.2,11.62-13.64,16.71-21l23.71-34.39c3.64-5.29,6.53-14,.77-16.82"/></g><g class="cls-7"><path class="cls-8" d="M358.33,565.59c7.12.1,16.31,1.9,17.38,8.94.35,2.26-.31,4.76.81,6.76.92,1.65,2.79,2.49,4.53,3.22l24.43,10.21-7.62,8.08,9,4.59c-9.36,13.64-36.59.09-45.09,14.28a14.78,14.78,0,0,1,9.87,6.61l-13.35,5.83C358,641,352,646.58,345.44,648.68s-13.65,1.47-20.51.81l21.63,16a5.64,5.64,0,0,1,1.87,2.27c2,4.85-5.18,7.37-10.19,7.19l-165.59-5.94,38.13-4.46a875.07,875.07,0,0,0-163.74-5L75.47,652,68,648.89a27.5,27.5,0,0,1,8.55-4.46c-6.83-4.73-15.59-5.36-23.88-5.84L0,635.56a560.86,560.86,0,0,1,98.35.72l-3.18,7.4,78.51,5.15a12.08,12.08,0,0,1-7.92-4.18,93.27,93.27,0,0,0,39.87-23.34A783.33,783.33,0,0,0,76.27,610.18c-.28-5.17,6.8-6.85,12-6.73L200,606.21c-2.85-1.29-1.73-6.11,1.16-7.31s6.17,0,9.07,1.14l-5.16-5a382.91,382.91,0,0,1,56.84,2.86l-5-5.66,9.92-5.3a16.75,16.75,0,0,1-13.6-9.69q28.08-1.35,56.2-2.16a58.9,58.9,0,0,1,51.24-8.92"/></g><g class="cls-9"><path class="cls-10" d="M847.79,1.79c4.48,1.36,9.28,2.94,12,6.73,2.24,3.07,2.07,8-.48,10.41a1,1,0,0,0,.5,1.73,149.66,149.66,0,0,1,46.22,17.63,1,1,0,0,1-.41,1.87l-23.71,2.71c-2,.22-4.24.59-5.41,2.23s.21,4.68,2.11,4c-5.39-.94-10.93,3.92-10.94,9.33a1,1,0,0,1-.74.94C828.88,70.15,788.75,52.9,749.11,52c-40-.9-79.93,15-119.32,9a1,1,0,0,1-.26-1.94,72.65,72.65,0,0,1,7.54-2.81,1,1,0,0,0-.32-2c-24.65.71-49.41.91-73.68-3.08a1,1,0,0,1-.05-2,417.63,417.63,0,0,1,103.12-8.6A1,1,0,0,0,667,39l-3.22-4.41a1,1,0,0,1,.66-1.6A535.25,535.25,0,0,1,777.61,26.9,1,1,0,0,0,778.1,25h0a1,1,0,0,1,.11-1.88L844.86,0"/></g></g><g id="Livello_20" data-name="Livello 20"><path class="cls-11" d="M358.83,685.48a1626.37,1626.37,0,0,1,224.91.36c22.53,1.59,45.35,3.73,66.49,11.68,7.17,2.7,14.42,6.31,18.78,12.61s4.73,15.91-1,21c-4.44,3.9-10.92,4.09-16.83,4.08l-326.55-1c17.66-8.72,38.17-8.81,57.87-8.71A3352.89,3352.89,0,0,0,32.31,740.77c11.14-10,26.82-12.75,41.6-15.09L166.2,711l-24.91-7.71c3.43-4.29,9.6-4.89,15.08-5.16l206.58-10"/><path class="cls-11" d="M358.83,687q67-4.5,134.18-3.54,33.06.49,66.1,2.34c21.73,1.21,43.78,2.13,65.21,6.2,15,2.86,47.92,8.78,46.44,29.77-.93,13.22-16,11.94-25.58,11.91l-33.85-.1-135.39-.4-151.33-.45.76,2.8c17.81-8.51,37.77-8.6,57.11-8.51a1.5,1.5,0,0,0,0-3q-136.69-1.15-273.19,8.76-38.52,2.82-77,6.51l1.06,2.56c16.31-14.06,41.27-14.76,61.56-18l71.67-11.37c1.55-.24,1.29-2.49,0-2.89l-24.91-7.71.66,2.51c5.58-6.1,16.46-4.83,24-5.2l27.81-1.34,56.61-2.74L363,689.69c1.93-.1,1.94-3.1,0-3L244.77,692.4l-58.6,2.83c-9.93.48-19.87.88-29.8,1.44-5.91.34-11.93,1-16.14,5.6a1.51,1.51,0,0,0,.66,2.5l24.91,7.71v-2.89l-75.6,12c-20,3.17-42.94,4.33-58.95,18.13a1.51,1.51,0,0,0,1.06,2.56q136.08-13,272.91-15,38.63-.56,77.26-.22v-3c-19.92-.09-40.29.16-58.63,8.92-1.38.66-.65,2.79.76,2.79l288.71.85,35.84.11c7.52,0,16.66.22,21.67-6.47,3.93-5.26,3.67-12.78.84-18.48-3.58-7.21-11-11.54-18.17-14.51-19.7-8.18-41.37-10.67-62.45-12.33-23.76-1.88-47.58-3.07-71.4-3.82q-80.41-2.52-160.82,2.92c-1.92.12-1.93,3.12,0,3Z"/><path class="cls-11" d="M1382.51,707.15c19.41,7.85,36.45,25.41,46.87,48.29-42.19,11.22-85.69,9.18-128.71,7.1l-204.14-9.89c-17.39-.84-34.82-1.69-52-5.07-15.71-3.08-31.15-8.25-46.86-11.27-12.44-2.39-25-3.43-37.56-4.46,1.29-7,8.24-8.59,13.73-8.72q71.07-1.67,142.15-.33c-8.17.65-16.48-4.25-21.53-12.7,97.29-13.16,196.11,23.25,292.82,4.09"/><path class="cls-11" d="M1382.11,708.6c21.15,8.8,36.51,27.19,46,47.6l.9-2.2c-29.79,7.78-60.57,9.2-91.23,8.51-30.87-.69-61.73-2.66-92.57-4.16L1152,753.84c-30.64-1.49-61.72-1.64-92.18-5.36-17.23-2.1-33.72-7-50.54-11.13-16.21-4-32.63-5.63-49.23-7l1.45,1.9c1.46-5.89,6.85-7.37,12.28-7.62,6.9-.31,13.83-.3,20.73-.42q20.24-.35,40.47-.45,40.47-.22,81,.54v-3c-8.76.36-15.69-4.8-20.23-11.95l-1.3,2.25c76.92-10.16,153.25,9.87,230.13,9.79a332.08,332.08,0,0,0,63.09-5.76c1.89-.37,1.09-3.26-.8-2.89-75.62,14.71-151.79-3.91-227.58-6.73a384.92,384.92,0,0,0-64.84,2.59,1.52,1.52,0,0,0-1.29,2.26c5.08,8,13,13.85,22.82,13.44a1.5,1.5,0,0,0,0-3q-45.4-.84-90.82-.48-22.71.2-45.41.68c-8.34.18-18.64,0-21.1,10a1.53,1.53,0,0,0,1.45,1.9c15.67,1.29,31.24,2.81,46.56,6.44,15.05,3.57,29.81,8.2,45.12,10.58,29.73,4.63,60.35,4.53,90.36,6,62.33,3,124.69,6.86,187.07,8.91,33.75,1.11,67.74.2,100.58-8.38a1.53,1.53,0,0,0,.9-2.21c-9.83-21.19-25.87-39.86-47.76-49-1.78-.74-2.56,2.16-.8,2.9Z"/></g><g id="Livello_6" data-name="Livello 6"><path class="cls-12" d="M793.82,145.8a56.39,56.39,0,0,1,19.56,25.92,9.88,9.88,0,0,0,1.31,2.74c2,2.6,6.27,2.2,8.94.26s4.34-4.94,6.46-7.48a25.42,25.42,0,0,1,28.26-7c3.75,1.52,7.55,5.61,5.55,9.13a8.37,8.37,0,0,1-2.78,2.57l-33.23,22.5c-7.58,5.13-15.2,10.29-23.52,14.11-2.54,1.17-5.46,2.22-8.07,1.2a8.63,8.63,0,0,1-4.13-4.19c-2.89-5.42-2.88-11.86-2.81-18l.41-32.92c0-3,.52-6.65,3.31-7.7"/></g><g id="Livello_5" data-name="Livello 5"><path class="cls-13" d="M780.62,123c2.55-3.21,15-10.71,17.7-7.61,2.8,3.25,1.1,12.48,1.65,16.53,2.92,21.32-.6,46.09-1.75,67.58,10.7-3.32,21.62-6.75,30.64-13.38,4.45-3.27,8.35-7.26,12.83-10.5,8-5.83,17.66-9,27.1-12.12,1.82-.59,4.08-1.1,5.42.27.45.45,9.83-3.52,10.06-2.93,3.38,8.85-8.55,24.28-15.81,30.36a46.31,46.31,0,0,1-10.16,5.9l-67.58,31.88c-7.19,3.39-15.68,6.79-22.77,3.18-8.42-4.29-9.68-15.87-8-25.16,2.63-14.31,9.49-27.42,14.8-41s9.11-28.51,5.31-42.55"/><path class="cls-14" d="M790.22,122a9.73,9.73,0,0,1,5.93-5.77,41,41,0,0,1-2.41,8.3c-10.1,28-15.16,57.86-13.5,87.54a3.34,3.34,0,0,0,.64,2.15c.78.82,2.11.64,3.19.32a58.56,58.56,0,0,0,7.57-3.23,151.88,151.88,0,0,1,18.22-6.64l38-12.1c.94-.3,2.4-.26,2.44.73l-48.93,13.49q38-16.47,74.91-35.44a32.07,32.07,0,0,1-8.2,3.6c-18.57,21.35-26.41,4.47-31.38,4.41,18.59-14.46,38.84-18.08,49-19.15a2.31,2.31,0,0,1,1.56.22,2.18,2.18,0,0,1,.71,1.29,28.17,28.17,0,0,1-6.45,26.16c-4.18,4.48-9.73,7.45-15.41,9.75-11.08,4.51-22.94,6.76-34.29,10.53-17.18,5.7-33.37,14.88-51.28,17.52-5.75.85-12.66.51-15.93-4.3s-1.09-11.28.68-16.84c6.06-19,5.93-39.83,14.5-57.81,2.2-4.61,5-9,6.37-13.9,1.09-3.82,1.39-8,3.47-11.35"/><path class="cls-13" d="M795.14,120.38c.35,5.69.87,11.37,1.61,17,.66,5,3.66,13.1.65,17.42-1.11,1.59,1.49,3.09,2.59,1.51,3-4.3,1.27-8.88.52-13.69-1.16-7.38-1.91-14.81-2.37-22.27-.11-1.92-3.11-1.94-3,0Z"/></g><g id="Livello_9" data-name="Livello 9"><path class="cls-15" d="M600.32,412.11a186.46,186.46,0,0,1,17.5,40,7.66,7.66,0,0,1,.46,4c-.51,2.09-2.57,3.34-4.39,4.48-14.58,9.11-24.22,24.19-33.09,38.92-4.86,8.07-9.65,16.2-13.69,24.71a161.67,161.67,0,0,0-15.59,67.55c0,4.26.16,8.77,2.5,12.33,1.88,2.85,4.89,4.71,7.8,6.48L587.19,626c6.14-13.2,17-23.5,27.55-33.56q16.23-15.51,32.11-31.36c8.95-8.92,17.83-17.94,25.85-27.71,4.35-5.3,8.44-10.8,12.52-16.31L701,495.84a9.29,9.29,0,0,0,2-3.67,7.76,7.76,0,0,0-.34-3.54c-2.26-8-9.07-14.86-8.4-23.13.28-3.51,1.92-6.74,3.33-10a82.33,82.33,0,0,0,4.81-50.31c-4.17-18.72-16.56-36.87-35-42.15-19.27-5.51-39.71,4.1-55.52,16.41-5.09,4-10.08,8.42-12.83,14.26s-2.77,13.38,1.5,18.21"/><path class="cls-16" d="M540.8,437.8a439.72,439.72,0,0,0-35.75,51.38C504,491,502.81,492.91,501,494c-2.47,1.44-5.54,1-8.39.86-11.22-.68-22.35,3.08-32.07,8.72s-18.23,13.1-26.68,20.52l-39.12,34.36c-7.05,6.2-14.66,13.51-14.92,22.89-.22,7.41,4.29,14,8.78,19.94,1.8,2.37,3.71,4.78,6.34,6.16,3.77,2,8.33,1.54,12.55.89a215.26,215.26,0,0,0,26.68-5.9c19.6-5.62,38.35-13.81,57-22l16.22-7.09c16-7,32-14,47.62-21.6,3.08-1.5,9.84-31.88,32.15-62.46,14.83-20.32,3-3.52-1.79-28.23C583.28,450.18,579,439,570,432.47s-23.66-5.8-29.35,3.72"/><path class="cls-16" d="M539.74,436.74q-11.38,14.14-21.64,29.15-4.92,7.23-9.55,14.66c-1.62,2.59-3.08,5.35-4.8,7.87-1.47,2.17-2.6,3.9-5.17,4.69-2,.62-3.9.33-6,.24-23.27-1-41.93,14-58.47,28.51q-14.46,12.64-28.87,25.35c-7.88,6.92-17.35,13.6-23.1,22.55-5.18,8.08-4.59,16.84.13,25s10.29,15.94,20.36,15.62c11.24-.36,23-3.84,33.74-7a352.2,352.2,0,0,0,35.88-13.12c23.62-9.88,47.16-20.18,70.4-30.94,5.87-2.72,13-4.12,15.81-10.36,2.9-6.52,5.2-13.31,8-19.86a210.56,210.56,0,0,1,15.4-29.38c3.12-4.91,6.56-9.58,10-14.3,1.25-1.74,3.22-3.85,3.77-6,.9-3.44-2.84-4.68-4.59-7.09-2.76-3.8-3.55-8.63-4.52-13.1a63.86,63.86,0,0,0-4.95-14.83c-4.3-8.69-11.63-15.94-21.53-17.36-8-1.16-16.16,1.49-20.7,8.43-1.06,1.62,1.54,3.13,2.59,1.52,5.16-7.88,16.08-8.91,24.12-5.07,9.09,4.34,14,14.4,16.5,23.65,1.76,6.4,2.21,13.56,6.44,19,1.67,2.16,4.26,2.59,3.25,5-1.15,2.72-3.69,5.34-5.41,7.7-3.33,4.59-6.53,9.26-9.47,14.11a215,215,0,0,0-13.16,25.57c-2.62,6-4.93,12.11-7.37,18.18-.61,1.5-1.13,3.63-2.21,4.88-2.24,2.6-7.77,4.06-10.85,5.51-20.8,9.71-41.93,18.77-63,27.88S438.51,600.83,416,605.3c-5.24,1-11,2.64-16.39,1.92-6.48-.86-10.22-6.83-13.52-11.93-2.69-4.16-5-8.88-4.83-13.95.17-5.83,3.56-10.88,7.37-15,6.95-7.57,15.34-14,23.05-20.79q12.93-11.35,25.85-22.7c9.24-8.07,18.8-16.06,30-21.23a55.64,55.64,0,0,1,19.7-5.23c4.22-.27,9.11,1.08,13.17-.49,4.4-1.71,6.45-6.92,8.74-10.66q4.57-7.45,9.44-14.74,10.89-16.32,23.22-31.6c1.2-1.49-.91-3.63-2.12-2.12Z"/><path class="cls-16" d="M613.66,443.24c-3.39-7.43-9.78-15.64-12.44-23.35-1.92-5.58-1.65-10.75,4.13-16.12a2.46,2.46,0,0,1-1.75,1.53c5.32-15.17,20.58-24.26,35.15-31,4-1.87,8.15-3.68,12.54-4.33,6.37-.95,12.82.62,19,2.28,7.18,1.91,14.62,4.13,20,9.26,6.19,5.91,8.58,14.66,10.71,22.94-7.36-3.78-14.94-7.27-23-9.15s-16.68-2-24.47.74c-10.6,3.79-18.72,12.75-23.89,22.76s-7.73,21.12-10.25,32.1a17.77,17.77,0,0,1-6.61-8.78"/><path class="cls-16" d="M615,442.48c-5.36-11.26-20.2-26-8.54-37.65L604.06,403l-1.21,1,2.2,1.69c3.49-9.31,10.61-16.27,18.8-21.64,7.72-5.06,17.11-10.49,26.2-12.37,6.36-1.32,12.78.13,18.94,1.74,5.06,1.32,10.22,2.7,14.83,5.23,9.93,5.45,13.1,15.89,15.76,26.17l2.21-1.69c-17.54-8.93-39.13-16.51-57.09-4.24-17,11.64-22.36,32.63-26.72,51.58l2.21-.9a17.52,17.52,0,0,1-5.92-7.88c-.69-1.78-3.59-1-2.9.8a21.28,21.28,0,0,0,7.3,9.67,1.51,1.51,0,0,0,2.21-.89c4.07-17.69,8.73-37.43,24.1-48.91,17.12-12.79,38.22-5.34,55.29,3.36a1.52,1.52,0,0,0,2.2-1.7c-2.62-10.15-5.83-20.73-15.1-26.76-4.81-3.11-10.39-4.8-15.87-6.28-6.56-1.78-13.37-3.48-20.21-2.54-10.45,1.42-21.61,8-30.19,13.85-8.38,5.72-15.34,13-18.94,22.61-.5,1.31,1.14,2.23,2.2,1.69a4.57,4.57,0,0,0,2.29-2.07c1-1.42-1.18-3-2.36-1.82-13.23,13.22,2,28.45,8.07,41.3.83,1.74,3.42.22,2.59-1.52Z"/><path class="cls-13" d="M573.28,500.6c5.12-4.16,10.73-9.36,10.37-16a21.09,21.09,0,0,0-2.35-7.46L575.71,465c-2.18-4.75-4.52-9.7-8.7-12.83-3.8-2.83-8.66-3.8-13.37-4.31-5.79-.64-11.89-.67-17.14,1.85-14.34,6.87-15.29,28.15-28.11,37.55-1.17.86-2.72,1.62-4,1L517,468.37c5-7.88,10.11-15.82,16.69-22.45a27.74,27.74,0,0,1,6.81-5.31,20.26,20.26,0,0,1,7.67-2.1c10-.8,19.78,4.95,26,12.9s9.3,17.85,11.46,27.68c1,4.41,1.68,9.33-.71,13.16-2.51,4-8.28,6.72-7.75,11.45l-3.35-3.58"/><path class="cls-13" d="M574.34,501.66c4.38-3.61,9.25-7.86,10.52-13.67s-2.3-11.62-4.66-16.79c-2.77-6.05-5.16-13.1-9.83-18-4.24-4.46-10-6-15.94-6.74-12-1.46-22.18,1.34-29.06,11.67-3,4.51-5.13,9.52-7.6,14.32-2,3.8-7.43,15.28-13,14.34l.9,2.21c7.56-11.86,14.6-24.39,23.33-35.44,4.13-5.23,9-11.07,15.66-12.9s13.52,0,19.18,3.46c11.31,6.95,16.54,19.75,19.57,32.11,1.74,7.1,2.76,13.11-2.8,18.69-2.6,2.61-5,4.91-5,8.8l2.56-1.06-3.35-3.58c-1.32-1.41-3.44.72-2.12,2.12l3.35,3.58a1.52,1.52,0,0,0,2.56-1.06c0-3.81,3.58-5.9,5.83-8.47a13.29,13.29,0,0,0,3.33-6.72c1-5.81-1.19-12.47-2.82-18-3.66-12.36-10.28-24.57-22.29-30.48a27.59,27.59,0,0,0-16.5-2.8c-6.69,1.07-11.55,5.26-16,10.15-10.73,11.92-18.6,26.61-27.18,40.06a1.51,1.51,0,0,0,.9,2.21c7.5,1.25,13.22-9.66,16.09-15.16,4.22-8.08,7.64-18.31,16.11-23C542.6,448,551,448.55,558,450c7.53,1.58,11.82,6.2,15.11,12.88,2.89,5.85,6.32,12.13,8.3,18.35,2.57,8.06-3.46,13.61-9.15,18.3-1.49,1.23.64,3.34,2.12,2.12Z"/><path class="cls-13" d="M394.52,587.49c1-4.07-1.78-8-2.56-12.16-.86-4.53.84-9.24,3.57-13s6.42-6.6,10.06-9.42c21.39-16.54,43.49-32.79,68.71-42.55,8.15-3.16,16.55-5.6,24.87-8.29,1.57-.5,3.5-2.16,2.38-3.37-6.83-5.72-16.93-5-25.54-2.65a94.87,94.87,0,0,0-49.31,32.35c-4.36,5.5-8.95,6.32-15.17,14.15a159.33,159.33,0,0,0-19.21,16.26c-2.3,2.2-4.63,4.53-5.81,7.49-2.81,7,1.7,14.7,6,20.93"/><path class="cls-13" d="M396,587.89c.74-5.17-2.32-9.06-2.71-14.07-.58-7.53,5.33-13.32,10.67-17.67,9.9-8.06,20.32-15.67,30.92-22.81a219.9,219.9,0,0,1,32.09-18.24,182.24,182.24,0,0,1,18.35-7c3-1,5.94-1.91,8.92-2.85,2.3-.72,5.23-1.16,7.21-2.66,7.44-5.61-8.38-9.5-12-9.7-9.92-.54-20.15,3.16-29,7.26a96.79,96.79,0,0,0-26.28,17.9c-3.67,3.51-6.63,7.59-10.16,11.19-3.11,3.17-7,5.4-10.18,8.54-7.51,7.44-16.26,13.51-23.7,21.11-9.21,9.42-5.59,19.28,1.11,29.13,1.08,1.59,3.69.09,2.59-1.52-3.09-4.54-6.74-9.84-6.67-15.58.08-6.63,6.31-11.18,10.76-15.28,5.92-5.45,12.35-10.11,18-15.74,2.62-2.6,5.71-4.58,8.5-7,3.39-2.92,5.95-6.73,9.05-10a94,94,0,0,1,24.22-18.14c8.67-4.53,18.85-8.58,28.75-8.94a25.68,25.68,0,0,1,7.66.74c3.08.83,8,2,2.87,4.61s-11.55,3.6-16.92,5.47c-20.05,6.95-38.24,17.79-55.43,30.1-9.33,6.68-20.09,13.43-27.95,21.86-3,3.27-5.54,7.24-6.23,11.72-.92,6,3.45,10.93,2.63,16.7-.27,1.89,2.62,2.7,2.89.8Z"/><path class="cls-15" d="M620.92,459.25a41.89,41.89,0,0,1-6.19,13.92c-1.1,1.59,1.5,3.1,2.59,1.51a44.21,44.21,0,0,0,6.49-14.63c.46-1.88-2.44-2.68-2.89-.8Z"/><path class="cls-16" d="M622.1,457.69c0,6.42-3.42,12.4-7.69,17.2s-9.41,8.76-13.82,13.43c-5.55,5.87-9.86,12.79-13.92,19.78-17,29.22-30.58,62.31-27.18,95.94-4-1.48-5.65-6.31-5.55-10.55s1.45-8.41,1.31-12.65c-.15-4.61.42-9,.34-13.66-.05-2.92-1.84-5.81-1.1-8.64a200.1,200.1,0,0,1,65.07-102.11"/><path class="cls-16" d="M620.6,457.69c-.63,15.22-16.48,23.38-25,34.16-8.22,10.38-14.59,22.56-20.37,34.43C563.44,550.45,555.49,576.93,558,604l2.26-1.29c-8-3.89-3.68-15.1-3.5-21.91.11-3.88.34-7.81.34-11.69,0-3.12-1.35-6.14-1.28-9.19.08-3.22,1.83-7.16,2.8-10.22q1.56-4.95,3.4-9.81a193,193,0,0,1,8.52-19.38,200.45,200.45,0,0,1,50.09-63.06c1.48-1.24-.65-3.36-2.12-2.12a201.88,201.88,0,0,0-61.79,90.53c-2.14,6.37-4.42,12.11-3,18.77,1.77,8.57-.41,18.43-1.11,27-.45,5.38,1,11.14,6.18,13.66.92.44,2.37-.07,2.25-1.3-2.68-29.06,6.78-57.18,20.06-82.66,6.34-12.19,13.13-24.83,23.07-34.49,8.61-8.37,18.94-16.16,19.48-29.2.08-1.93-2.92-1.93-3,0Z"/></g><g id="Livello_8" data-name="Livello 8"><path class="cls-13" d="M591.87,241.94c-11.07,6.95-21.41,15.42-28.84,26.17-10.34,15-14.46,33.76-13.07,51.89s8,35.62,17.5,51.14c3.75,6.14,8,12,10.94,18.58,6.35,13.95,6.94,30.52,16.05,42.85,5.53,7.49,13.63,12.59,21.54,17.5a3.3,3.3,0,0,0,1.27.56c1.72.23-8.42-16.81-9-17.93s-4.34-8.55-6.61-12.4c-1.44-2.45-.88-6.43-.61-9.25s2.34-5.27,4.39-7.34c13.3-13.48,30.83-23.57,49.73-24.76s38.91,7.81,47.86,24.5L715.62,372c1.29-3.23,2.6-6.54,2.71-10,.15-4.5-1.73-8.79-3.58-12.9-3.34-7.47-6.81-15.11-12.58-20.91-3.66-3.68-8.09-6.45-12.41-9.33A266.69,266.69,0,0,1,629.05,263c-5-6.26-10-13-17.41-16.09-6.43-2.68-14.29-2.37-19.48-7"/><path class="cls-14" d="M579.94,375.76a60.17,60.17,0,0,0-30.77,27.84c-2.06,3.95-3.68,8.14-6.07,11.91-4.52,7.12-11.63,12.41-15.63,19.84-3.84,7.14-6.44,15.4-3.52,23,3-4.41,8-8.26,10.94-12.68a22.11,22.11,0,0,1,4.34-5.22c3.26-2.6,7.73-3.17,11.88-2.74,10.91,1.13,20.49,8.53,26.32,17.83s8.3,20.32,9.4,31.24a70.66,70.66,0,0,1,17-17.49c4.23-3,8.93-5.74,11.81-10.07s3.17-11-1-14.11"/><path class="cls-13" d="M598.18,222.28c-1.48.21-2.18,2.05-1.9,3.52s1.16,2.74,1.63,4.16c1.13,3.39-.37,7.2-2.76,9.85s-5.57,4.45-8.58,6.39a83.37,83.37,0,0,0-36.56,56c-3.37,20.94,1.64,42.87,12.56,61,5.52,9.19,12.54,17.6,16.29,27.64,2.12,5.68,3.12,11.71,4.7,17.57,4.61,17.12,15.61,33.88,32.49,39.31a30.39,30.39,0,0,1-17.82-18.72,26.7,26.7,0,0,1,5-25.08c4.29-4.93,10.32-7.94,16.19-10.82L647,379.62c3.91-1.92,8-3.88,12.31-4.1,3.61-.18,7.16.86,10.59,2,13.92,4.68,28.14,12.4,34.13,25.82l6.22-17.61c2.33-6.62,4.7-13.49,4.07-20.49-.43-4.78-2.25-9.31-4-13.76-4.68-11.58-9.51-23.41-17.75-32.79-11-12.52-26.86-19.38-41.6-27.17-5.14-2.71-10.24-5.61-14.57-9.49s-7.68-8.51-11.05-13.16c-5.79-8-11.65-16.07-15-25.33-1.32-3.67-2.24-7.5-3.86-11.05a30.77,30.77,0,0,0-10.06-12.23"/><path class="cls-14" d="M591.77,239.58q-6.19,5.4-12.06,11.16c-1.66,1.63-3.34,4.32-1.73,6a5,5,0,0,0,2.82,1.09c9.13,1.76,16.3,9.1,20.71,17.28s6.59,17.35,9.68,26.11c3.54,10,9.77,20.81,20.24,22.69,4.54.82,9.19-.23,13.8-.27,10.1-.08,19.56,4.6,28.57,9.18,3.47,1.76,7,3.57,9.8,6.27s4.83,6.36,6.57,10a130.43,130.43,0,0,1,12.91,52.52l9.1-25.57c1.07-3,2.14-6.05,2.11-9.22,0-4.21-2-8.12-4-11.85l-18.83-36.09c-2.15-4.12-4.33-8.29-7.39-11.78-5.32-6.08-12.86-9.66-20-13.51a124.37,124.37,0,0,1-24.88-17.17c-7.27-6.65-13.42-14.46-20.71-21.09s-16.15-12.19-26-12.93c-2.45-.18-5.91,1.28-5,3.56"/><path class="cls-14" d="M587.42,256.34c-15.47,12.29-24,32-25.2,51.71s4.45,39.4,13.37,57c2.93,5.78,6.26,11.44,10.75,16.11,5.56,5.78,13.15,10.54,15,18.34.89,3.82.2,7.8,0,11.72A47.59,47.59,0,0,0,615.19,447c-8.25-4.92-13.25-13.71-17.89-22.12l-29.47-53.43c-8.31-15.06-16.77-30.56-19.11-47.6-3-22,4.83-44.78,18.84-62,4.29-5.29,9.76-10.44,16.55-11.05a6.36,6.36,0,0,1,0,5.61"/><path class="cls-12" d="M575,381c4.23,16.12,17.15,28.56,23.32,44,1.8,4.5,3.14,9.45,6.68,12.76,3.07,2.89,7.78,4.57,8.94,8.62a54.3,54.3,0,0,1-27.52-29.08c-4.39-11.13-5.1-23.79-11.65-33.81"/><path class="cls-14" d="M530.8,439.37a1.5,1.5,0,0,0,0-3,1.5,1.5,0,0,0,0,3Z"/><path class="cls-14" d="M539.78,433.16a1.5,1.5,0,0,0,0-3,1.5,1.5,0,0,0,0,3Z"/><path class="cls-12" d="M586.81,407.71a109.35,109.35,0,0,0-13.5-27c2.11.54,2.54,3.59,1.37,5.43s-3.26,2.81-5.11,4c-13.49,8.3-16.08,26.94-26.75,38.64-3.78,4.14-8.51,7.33-12.19,11.56s-8.74,12.57-7,17.9c-4.65-7,.86-19.1,5.84-25.86S541.24,420,545,412.55c2.34-4.64,3.4-9.82,5.62-14.51a32.84,32.84,0,0,1,19.92-17.2c1.72-.52,4.54.33,3.71,1.91"/><path class="cls-12" d="M612.9,443.43c2.37,3.75,3.78,8.45,2.32,12.63s-5.32,6.87-8.75,9.62A75.69,75.69,0,0,0,588.2,487a72.36,72.36,0,0,0-4.11-20.58c2,3,4.66,6.45,8.27,6.19,2.25-.17,4.1-1.76,5.76-3.28l9.65-8.76a27.07,27.07,0,0,0,5.93-6.72c1.44-2.64,1.92-6,.48-8.62a2.59,2.59,0,0,1,1.2,3.41"/><path class="cls-12" d="M611.61,444.19c3.43,5.92,3.56,11.75-1.62,16.65-2.64,2.5-5.68,4.56-8.37,7a79.56,79.56,0,0,0-14.71,18.42l2.79.76a79.46,79.46,0,0,0-4.16-21l-2.74,1.16c2,2.93,4.46,6.38,8.25,6.86,4.22.54,7.37-2.95,10.2-5.52,6.3-5.72,18.56-13.57,14.38-23.69l-2.21,1.7.52,1.71c-.48,1.87,2.41,2.67,2.89.8a4.39,4.39,0,0,0-1.89-5.1,1.51,1.51,0,0,0-2.21,1.69c3,7.35-4.75,12.73-9.46,17-2.23,2-4.4,4.17-6.72,6.09-4.64,3.83-8.31,1.16-11.16-3.06-.9-1.34-3.33-.55-2.74,1.15A76.7,76.7,0,0,1,586.7,487a1.51,1.51,0,0,0,2.8.75c5.7-9.7,13.1-16.6,21.5-23.85,7-6,7.77-13.38,3.2-21.27a1.5,1.5,0,0,0-2.59,1.52Z"/></g><g id="Livello_4" data-name="Livello 4"><path class="cls-17" d="M792.17,81.18c-2.32,3.07-6.91,3-10.68,2.27C762,79.74,745,67.27,725.53,63.36c-12-2.41-24.39-1.47-36.53-.06a490.9,490.9,0,0,0-79.8,16c-10.23,3-20.45,6.28-29.73,11.51-16.68,9.4-29.39,24.36-41.72,39-3.3,3.92-6.75,8.19-7.21,13.3-.79,8.8,7.25,15.45,12.9,22.25,18.75,22.52,15.07,58.26,35,79.7a5.7,5.7,0,0,0,2.33,1.73c3.67,1.16,5.46-4.14,7.18-7.58,6.51-13,28.47-5.31,39.48-14.87,3.37-2.93,5.32-7.22,8.72-10.11,5.85-5,14.83-4.61,21.69-1.18S670,222.46,675,228.24c8.62,9.87,10.58,33.43,19.19,43.3,5.55,6.36,11.65,9.78,12.4,18.19.66,7.4,3.58,4.78,5.36,12,1.64,6.68,7.33,11.47,12.7,15.77l46,36.84a124.1,124.1,0,0,1,2.87-39.18c.47,4.59-5.42,9.65-4.95,14.24-.93-1.89,9.25-2.2,10.64-.62a107.2,107.2,0,0,1,22,39.85c.78,2.63,1.66,5.55,4,6.94,2.89,1.69,6.54.3,9.56-1.14,7.74-3.7,15.51-7.69,24-9.13s17.93.09,24,6.18c1.41,1.42,2.72,3.13,4.63,3.75,4.23,1.35,8.08-3.83,7.6-8.24s-3.49-8.05-5.69-11.91c-10.65-18.68-2.31-42,6.16-61.79L894.84,248c2.56-6,5.12-11.95,8.57-17.43,2.69-4.28,5.9-8.23,8.16-12.74,8.1-16.18,2.5-35.54-3.22-52.71-2.37-7.11-5.86-15.28-13.17-16.9-7.61-.59-10.54-5.18-15-.59-4,4.06,15.71,17.36-6.39,27.11-32,14.12-63,30.54-94.5,45.82a6.33,6.33,0,0,1-3.45.92c-3.38-.43-3.7-5.18-3.09-8.53l11.5-62.62c1.47-8,2.94-16,5.89-23.52,2.12-5.46,13.19-13.06,13.19-18.85,0-8.18,17.66-14.65,7.43-17.35"/><path class="cls-17" d="M718.16,289.73c-9.14,11.72-15.31,25-25.63,35.66a5.8,5.8,0,0,0-1.46,2.05,5.68,5.68,0,0,0,.62,4,225.34,225.34,0,0,0,23,41.69c2.77,4,6,8.11,10.71,9.36,5.7,1.52,11.44-1.69,17.19-3,3-.66,6-.82,9-1.7,6.08-1.85,10.76-6.6,15.16-11.18,2.47-2.57,5-5.26,6.16-8.64a24.69,24.69,0,0,0,.89-7.38c.22-12.25,2-30.4,2.27-42.65"/><path class="cls-15" d="M637.38,170.22l30.23-18,5.06-3,15.62-9.32L641,178.21l-4.23-7.78"/><path class="cls-15" d="M658.38,138.23c14.23,2.32,28.31-1.1,42.54-1.67a147.65,147.65,0,0,1,22.05.74q6.48.7,12.88,2c3.54.71,8,1.16,10.85,3.64,1.44,1.27,3.57-.84,2.12-2.12-4.6-4.06-12-4.51-17.84-5.44a152.62,152.62,0,0,0-22.38-1.94c-16.44-.18-33.08,4.56-49.42,1.89-1.89-.3-2.7,2.59-.8,2.9Z"/><path class="cls-15" d="M695.35,142.52c-6.7,10.32-11.09,21.77-15.37,33.24-.49,1.31,1.14,2.25,2.21,1.7a68.2,68.2,0,0,0,29.39-29.76,1.5,1.5,0,0,0-2.59-1.51l-14.41,20.54c-1,1.38,1.28,3.14,2.36,1.81,3.54-4.33,10.06-5.26,14.91-7.72a59.26,59.26,0,0,0,13.51-9.56l-2.12-2.12c-11.16,12.2-27.83,16.45-40.87,26.1-1.52,1.12-.12,3.68,1.51,2.59a184.41,184.41,0,0,1,25.42-14.12l-1.51-2.59a340.63,340.63,0,0,1-40.67,21.56c-1.76.79-.23,3.37,1.52,2.59a341.27,341.27,0,0,0,40.66-21.56,1.5,1.5,0,0,0-1.51-2.59,183.83,183.83,0,0,0-25.42,14.12l1.51,2.59c13.26-9.81,30.13-14.15,41.48-26.57a1.5,1.5,0,0,0-2.12-2.12,56,56,0,0,1-17,11c-4.18,1.7-8.48,2.7-11.45,6.33l2.35,1.82,14.41-20.54L709,146.19a65.51,65.51,0,0,1-28.32,28.68l2.21,1.69c4.19-11.24,8.5-22.42,15.06-32.53,1-1.63-1.55-3.13-2.59-1.51Z"/><path class="cls-15" d="M891.5,170.13A27.93,27.93,0,0,1,897,202.35c-.83,1.73,1.76,3.26,2.59,1.51a31,31,0,0,0-6-35.85,1.5,1.5,0,0,0-2.12,2.12Z"/><path class="cls-15" d="M846.45,238.15c5.71-1.31,10.88-4.54,16-7.32,6.4-3.5,12.78-6.93,19.71-9.26,1.83-.61,1-3.51-.79-2.89a109.91,109.91,0,0,0-17.3,7.85c-5.86,3.17-11.83,7.22-18.37,8.73-1.89.43-1.09,3.33.79,2.89Z"/><path class="cls-15" d="M806.75,263.64a270.74,270.74,0,0,0-30.9,30.43c-8.09,9.4-18.34,20.13-21.32,32.49a1.51,1.51,0,0,0,2.74,1.15A25.27,25.27,0,0,1,773,316.77a1.53,1.53,0,0,0,1-1.85,24.72,24.72,0,0,1-.91-12.48,1.5,1.5,0,0,0-2.89-.8,56.51,56.51,0,0,1-5.42,10.69l2.74,1.15A11.69,11.69,0,0,1,769.7,309l-2.59-1.52a56.06,56.06,0,0,1-4.85,6.81l2.35,1.82,3.1-4.46c1.11-1.6-1.49-3.09-2.59-1.52l-4.87,7,2.74,1.16a8.27,8.27,0,0,1,2.82-4.58l-2.36-1.82-3.87,5.55c-1,1.38,1.26,3.12,2.36,1.81l6-7.11-2.51-1.46a9.76,9.76,0,0,1-2.73,4.73l2.36,1.81a26.72,26.72,0,0,1,2.91-4.23l-2.51-1.46-1.31,2.48c-1.18,1.48.7,3.49,2.13,2.12a10,10,0,0,1,3.25-2.36l-1.81-2.36a32.78,32.78,0,0,1-6.32,4.75,1.5,1.5,0,0,0,1.51,2.59l4.59-2.62-1.82-2.35a7.58,7.58,0,0,1-2.81,1.69l1.51,2.59a16.28,16.28,0,0,0,5.59-6l-2.74-.36.61,2.24a1.51,1.51,0,0,0,1.44,1.1h.3a1.55,1.55,0,0,0,1.45-1.1,1.86,1.86,0,0,0-.21-1.86,1.57,1.57,0,0,0-1.69-.69c-1.26.22-1.44,1.1-2.48,1.64l1.52,2.59a5.15,5.15,0,0,0,2.54-4.53h-3l.15,3.42h3l-.79-.34-.69-1.69,1.67-.42c-1.2-1.51-3.31.63-2.12,2.12l.23.29a1.46,1.46,0,0,0,1.46.39,2,2,0,0,0,1.65-1.59,1.51,1.51,0,0,0-.69-1.69c-2.31-1.25-3.93.53-3.72,2.93.17,1.89,3.09,1.95,3,0l-.15-3.42a1.5,1.5,0,0,0-3,0L766.65,313a1.5,1.5,0,0,0,1.52,2.59c.43-.23,1.36-1.27,1.76-1.34l-1.7-.68-.09-.45,1.44-1.11h-.3l1.45,1.11-.61-2.25a1.52,1.52,0,0,0-2.74-.36,13.2,13.2,0,0,1-4.51,4.88,1.5,1.5,0,0,0,1.51,2.59,12.69,12.69,0,0,0,3.42-2.16c1.32-1.13-.37-3.18-1.82-2.36l-4.58,2.62,1.51,2.59a35.57,35.57,0,0,0,6.93-5.22A1.5,1.5,0,0,0,768,311.1a17.74,17.74,0,0,0-3.87,2.83l2.13,2.12a10.68,10.68,0,0,0,2.07-3.8c.44-1.38-1.53-2.62-2.5-1.46a31.1,31.1,0,0,0-3.38,4.84c-.82,1.44,1.18,3.12,2.35,1.82a15.66,15.66,0,0,0,3.5-6.05c.45-1.38-1.53-2.61-2.5-1.46l-6,7.11,2.36,1.82,3.87-5.55c1-1.42-1.17-3-2.35-1.82a13.58,13.58,0,0,0-3.59,5.91c-.54,1.71,1.81,2.48,2.74,1.16l4.87-7-2.59-1.52-3.1,4.46c-1,1.39,1.27,3.13,2.36,1.82A61.74,61.74,0,0,0,769.7,309c1-1.7-1.46-3-2.59-1.52a13.09,13.09,0,0,0-2.48,5.26,1.51,1.51,0,0,0,2.74,1.15,60.2,60.2,0,0,0,5.72-11.4l-2.89-.8a27.93,27.93,0,0,0,.9,14.08l1-1.85a28.48,28.48,0,0,0-17.47,12.33l2.75,1.15c1.55-6.44,5.24-11.72,9.14-17q6.51-8.73,13.74-16.88a270.31,270.31,0,0,1,28.56-27.76c1.48-1.25-.66-3.36-2.12-2.12Z"/><path class="cls-15" d="M768.81,309.28l-.14.2,1.69-.69-.28-.07,1,1V310l-3-.4A2,2,0,0,1,768,311l2.79.75.14-2.24c.08-1.42-2.21-2.13-2.8-.75a23.42,23.42,0,0,1-8.3,10.22h1.52l.19.26a1.51,1.51,0,0,0-2.2-.89,2.68,2.68,0,0,0-1.3,1.45l2.79.76a2.7,2.7,0,0,1,.32-1.56c.7-1.81-2.2-2.59-2.9-.8a6.13,6.13,0,0,0-.42,2.36c0,1.37,2.19,2.18,2.8.75l.22-.37-2.2-.9a2.46,2.46,0,0,0,1.18,1.53,1.48,1.48,0,0,0,1.52,0,26.13,26.13,0,0,0,9.37-11.3l-2.79-.76-.14,2.24a1.51,1.51,0,0,0,2.8.76,5,5,0,0,0,.55-2.94c-.19-1.52-2.59-2.22-2.95-.4a3,3,0,0,0,0,1.39,1.5,1.5,0,0,0,1,1.05l.27.07a1.55,1.55,0,0,0,1.7-.69l.14-.19c1.12-1.57-1.48-3.07-2.59-1.52Z"/><path class="cls-15" d="M700.75,318.23c-2.54,1.6-5.69-1.94-8.59-1.22a4.2,4.2,0,0,0-2.82,3.88,34.77,34.77,0,0,0,1.54,8.5c7.44,20.66,24.8,46.28,28.1,49.59,4.13,3.3,5.83,3.38,7,3.75,4.52,1.21,11.13-2.1,18.59-3.31a34.42,34.42,0,0,0,9.83-2.56c8.33-4.49,10.2-9.08,10.2-9.08a2.87,2.87,0,0,0,.56-1,2,2,0,0,0-.86-1.54L751,352.74c-5.54-5.18-11.08-10.36-16.79-15.35C724,328.54,712.67,320,699.34,318.2"/><path class="cls-15" d="M778.74,327.33c-.29-6.47-2-12.76-2.25-19.23l-2.56,1.06c4.09,3.85,9.48,4,14.81,3.69l-.76-2.8c-6.69,2.94-10.38,9.21-12.18,16.05a1.51,1.51,0,0,0,2.74,1.16c2.76-4.23,3.83-8.75,8.1-12l-1.81-2.36a55.61,55.61,0,0,0-9.74,13.3c-.89,1.71,1.67,3.22,2.59,1.52,2.93-5.4,7.13-9.73,11.45-14a1.51,1.51,0,0,0-1.46-2.51,28.12,28.12,0,0,0-8.88,3.82l2.05.53-.57-1.84c-.32-1.57-2.43-1.28-2.89,0l-1,2.89,2.95.4a11.91,11.91,0,0,0-.27-4.08,1.52,1.52,0,0,0-2.74-.36,13.26,13.26,0,0,0-1.88,4.33l3,.4a4.71,4.71,0,0,1,.2-2.75l-2.94-.4-.05,6.65c0,1.95,2.88,1.91,3,0q.27-4.2.51-8.4l-1.9,1.45,5.73,1,.4-2.95-2.14-.14.76,2.8,2.52-.4-.36-2.74a11.48,11.48,0,0,0-6.45,8.1l3,.4c-.14-3.06-1.14-6-1.29-9a1.51,1.51,0,0,0-2.95-.4,6.65,6.65,0,0,0-.36,3.16c.21,1.9,3.21,1.92,3,0a3.34,3.34,0,0,1,.26-2.36l-3-.4c.15,3.06,1.15,6,1.29,9,.08,1.62,2.56,2.12,2.95.4a8.68,8.68,0,0,1,5.07-6.31,1.51,1.51,0,0,0-.36-2.74,6.41,6.41,0,0,0-4.84.7c-1.38.74-.64,2.7.76,2.79l2.14.14c1.66.11,2.07-2.67.4-2.95L777,311a1.53,1.53,0,0,0-1.9,1.45q-.24,4.2-.51,8.4h3l.05-6.65a1.51,1.51,0,0,0-3-.4,8.52,8.52,0,0,0-.31,3.55c.17,1.57,2.51,2.17,2.94.4a11.1,11.1,0,0,1,1.58-3.61l-2.74-.36a6.88,6.88,0,0,1,.16,3.28c-.19,1.78,2.41,1.88,2.94.4l1-2.9h-2.89a9.29,9.29,0,0,0,.87,2.57,1.53,1.53,0,0,0,2.06.54,25.76,25.76,0,0,1,8.16-3.52l-1.46-2.5c-4.5,4.47-8.87,9-11.92,14.62l2.59,1.52a53.11,53.11,0,0,1,9.27-12.7c1.15-1.16-.42-3.41-1.82-2.35a23.64,23.64,0,0,0-5,5.22c-1.75,2.43-2.54,5.32-4.17,7.82l2.74,1.16c1.63-6.18,4.74-11.6,10.8-14.26,1.38-.6.67-2.87-.75-2.79-4.42.23-9.25.43-12.69-2.81a1.52,1.52,0,0,0-2.56,1.06c.29,6.47,2,12.76,2.25,19.23.09,1.92,3.09,1.93,3,0Z"/><path class="cls-15" d="M783,331.46c.38-2.51,1.05-4.3,0-6.61.1,1.5-1,3.13-.92,4.63-1-5.88,3.38-11.17,7.41-15.56,14.35-15.62,28.87-31.4,46.43-43.32,13.58-9.23,28.67-15.94,43.39-23.23a58.92,58.92,0,0,0,8.46-4.84,59.83,59.83,0,0,0,5.84-5.06l12-11.28c-4.79,9.16-9.91,18.71-18.53,24.41a72.54,72.54,0,0,1-9.68,5c-31.44,14.65-58.21,37.73-82.54,62.45a54.94,54.94,0,0,0-11,15.07c-.52-4.32-.45-8.69,1.8-12.43a37.4,37.4,0,0,1-1.82,7.14"/><path class="cls-15" d="M784.48,331.86c.46-2.66.85-4.8,0-7.41-.42-1.26-2.67-1.58-2.9,0s-.7,3.05-.92,4.63l3,.4c-.65-7.91,6.25-13.73,11.16-19.05,4.61-5,9.25-9.95,14-14.77,9.71-9.75,20.07-18.88,31.7-26.27s24-13.1,36.31-19.11c5.08-2.49,10.13-4.92,14.46-8.62,5.33-4.54,10.28-9.6,15.37-14.41l-2.36-1.81c-3.18,6.06-6.39,12.24-10.89,17.46-4.88,5.66-10.94,8.64-17.56,11.77a220.56,220.56,0,0,0-36.25,21.84,336.35,336.35,0,0,0-30.9,25.89c-9.6,9-20.16,18-26.13,30l2.8.75c-.42-4.11-.36-7.91,1.59-11.67l-2.74-1.15a47.78,47.78,0,0,1-1.82,7.13c-.62,1.83,2.28,2.62,2.89.79a47.17,47.17,0,0,0,1.82-7.13c.27-1.56-1.9-2.77-2.74-1.15-2.2,4.24-2.48,8.47-2,13.18.13,1.34,2.06,2.22,2.79.76,6.2-12.38,17.55-21.86,27.57-31.13a311.23,311.23,0,0,1,34-27.66c11.59-8,23.8-14.2,36.34-20.51,11.66-5.88,17.93-16.41,23.8-27.62a1.5,1.5,0,0,0-2.35-1.82c-5.09,4.81-10,9.88-15.37,14.41s-12.38,7.43-18.78,10.54c-13.35,6.49-26.75,13-38.8,21.76-11.09,8-21,17.53-30.45,27.41-4.85,5.07-9.75,10.15-14.32,15.46-3.68,4.29-6.68,8.93-6.2,14.77.12,1.55,2.69,2.2,2.94.4.23-1.59.7-3.05.93-4.63h-2.9c.7,2.11.37,3.71,0,5.81-.32,1.89,2.57,2.7,2.9.8Z"/><path class="cls-15" d="M706.83,228.9c2,6,2.9,12.25,4.44,18.37a121.14,121.14,0,0,0,6.28,18.23c5.36,12.51,12.37,24.2,19.37,35.84,1,1.69,3.38.22,2.59-1.51a11.64,11.64,0,0,0-2.1-3.12c-1-1.16-2.83.07-2.51,1.46a4.77,4.77,0,0,0,1.17,2.6l2.36-1.82c-3.43-4.12-11.65-6.72-13.06.66h2.9c-3.23-21.17-14.62-40.35-15.77-61.92l-3,.4a176.07,176.07,0,0,0,13.51,46.83c.7,1.56,3.24.45,2.74-1.15l-1.68-5.47-2.74,1.16,4.35,9.47c.72,1.55,3.23.45,2.74-1.16a56.4,56.4,0,0,0-5.78-13l-2.59,1.51q5.76,8.37,11.26,16.91l1.69-2.21a7.93,7.93,0,0,1-5.8-4,1.51,1.51,0,0,0-2.79.75,20.36,20.36,0,0,0,.84,8.6,1.52,1.52,0,0,0,2.9,0l1.22-4.52-1.85,1.05a13.71,13.71,0,0,1,3.95,2.17l.36-2.74-3.51.7.8,2.9L732,296c1.46.56,2.44-1.5,1.46-2.51a25,25,0,0,1-4.53-6.33L726.57,289a62.91,62.91,0,0,1,5.7,7.21c1.08,1.59,3.68.09,2.59-1.52a68.3,68.3,0,0,0-6.17-7.81c-1.19-1.31-3.1.35-2.35,1.82a27.33,27.33,0,0,0,5,6.93l1.46-2.5a6.16,6.16,0,0,0-4.43-.15,1.51,1.51,0,0,0,.8,2.9l3.5-.71c1.37-.27,1.33-2.06.36-2.74a21.91,21.91,0,0,0-4.66-2.47,1.52,1.52,0,0,0-1.85,1.05l-1.22,4.51h2.9a18.42,18.42,0,0,1-.74-7.8l-2.8.76a10.34,10.34,0,0,0,7.59,5.42c1.2.21,2.47-1,1.7-2.21q-5.51-8.53-11.26-16.9c-1.08-1.57-3.6-.16-2.59,1.51a52.83,52.83,0,0,1,5.48,12.31l2.74-1.16L724,278c-.71-1.55-3.23-.46-2.74,1.15l1.68,5.46,2.74-1.15a173.52,173.52,0,0,1-13.21-46.11c-.23-1.68-3-1.28-2.94.39,1.17,21.87,12.61,41.27,15.87,62.72.23,1.46,2.63,1.4,2.9,0,1.25-6.56,6.89-.71,8,.66s3.34-.43,2.35-1.81l-.86-1.89-2.51,1.46a6.69,6.69,0,0,1,1.63,2.51l2.59-1.51c-6.69-11.12-13.43-22.29-18.65-34.19a121.63,121.63,0,0,1-6.7-19.17c-1.54-6.12-2.42-12.37-4.44-18.37-.61-1.82-3.5-1-2.89.8Z"/><path class="cls-15" d="M723.21,275.6a9.4,9.4,0,0,0-1.5-4.29,1.54,1.54,0,0,0-2.06-.54,1.51,1.51,0,0,0-.53,2.05l1.65,2.47a1.54,1.54,0,0,0,2.05.54,1.51,1.51,0,0,0,.54-2.05l-1.65-2.47-2.59,1.51a6.22,6.22,0,0,1,1.09,2.78,1.54,1.54,0,0,0,1.5,1.5,1.51,1.51,0,0,0,1.5-1.5Z"/><path class="cls-15" d="M644.2,200a14.28,14.28,0,0,1,.75,4.29h3l-.54-4.84-2.79.76a20.77,20.77,0,0,0,6.93,7.05l1.51-2.59a8.42,8.42,0,0,0-6.87-.89l1.85,1a2.5,2.5,0,0,1-.07-1.64l-1.84,1a3.91,3.91,0,0,1,1.45,1c1.28,1.29,3-.34,2.36-1.82-1-2.17-4.14-1.58-4.78.47a1.52,1.52,0,0,0,.69,1.7,9.87,9.87,0,0,0,3,.85c1.91.24,1.89-2.77,0-3a5.28,5.28,0,0,1-1.5-.44l.69,1.69c-.16.36-.39.44-.7.24l2.35-1.81a7.36,7.36,0,0,0-2.77-1.76,1.51,1.51,0,0,0-1.85,1.05,5.43,5.43,0,0,0,.06,3.24,1.53,1.53,0,0,0,1.85,1,5.43,5.43,0,0,1,4.56.59c1.66,1,3.15-1.57,1.51-2.59a17.53,17.53,0,0,1-5.85-6c-.71-1.18-3-.79-2.8.76l.54,4.84c.21,1.87,3,2,3,0a17.24,17.24,0,0,0-.85-5.09c-.61-1.83-3.51-1-2.9.8Z"/><path class="cls-15" d="M559.37,195.19c-2.59,8.2-.34,17.11,2.69,25.14a131.15,131.15,0,0,0,12.73,25.12c1.29,2,3.45,4.22,5.63,3.28,1.56-.68,2.07-2.76,1.59-4.4a12.9,12.9,0,0,0-2.76-4.26c-10.2-12.51-11.87-29.89-19.73-44"/><path class="cls-15" d="M557.92,194.79c-3.18,11.54,1.17,23.14,5.88,33.63,2.72,6.06,5.78,12.39,9.69,17.79,1.69,2.34,4.47,5.4,7.69,3.81,2.89-1.42,2.87-5.11,1.64-7.62-1.09-2.23-3.21-4.19-4.57-6.21a53.56,53.56,0,0,1-4.15-7.39c-5.09-10.91-7.54-22.83-13.28-33.47-.92-1.7-3.51-.18-2.59,1.52,7.6,14.09,9.55,30.78,19.48,43.66.61.78,1.23,1.56,1.85,2.33q3.12,3.87-3.48,1.86c-1.43-.9-2.83-4.55-3.68-6A127.85,127.85,0,0,1,566,226.1c-4.19-9.52-8.09-20.08-5.22-30.51a1.5,1.5,0,0,0-2.89-.8Z"/><path class="cls-15" d="M541.06,147a17.25,17.25,0,0,1-.56,6.35c.38-1.24-1.75,3.82-1.76,4.16,0,1.78,1.15,3.19,2.08,4.65q5.58,8.85,10.78,17.93l2.59-1.51a77.82,77.82,0,0,1-9.86-26.9l-2.89.8c1.21,6.15,3.81,12,6,17.83.67,1.79,3.57,1,2.89-.8q-2.37-6.39-5.12-12.63a1.5,1.5,0,0,0-2.05-.54,3.66,3.66,0,0,0-1.73,2.27l2.74-.35-.83-1.54c-.46-1.21-2.65-1.63-2.89,0l-.26,1.72c-.29,1.86,2.45,2.72,2.89.8l1.11-4.85-3-.39c1.06,8.49,7,15.2,8.23,23.62.28,1.9,3.17,1.09,2.9-.8-1.2-8.17-7.11-14.65-8.13-22.82-.19-1.54-2.53-2.2-2.94-.4l-1.11,4.84,2.89.8.26-1.72h-2.89a8.2,8.2,0,0,0,1.13,2.25,1.53,1.53,0,0,0,2.75-.36l.34-.48-2-.54q2.58,5.89,4.82,11.92l2.89-.8c-2.19-5.85-4.79-11.68-6-17.83-.37-1.9-3.21-1.08-2.89.8a79.84,79.84,0,0,0,10.16,27.61,1.5,1.5,0,0,0,2.59-1.51q-4.53-7.89-9.33-15.62c-1.7-2.72-2.51-4.73-1.76-8a24.51,24.51,0,0,0,1-7.95c-.14-1.92-3.14-1.93-3,0Z"/><path class="cls-15" d="M544.53,160.75a24.49,24.49,0,0,1-.45-4.44h-3a12.77,12.77,0,0,0,.83,4c.59,1.49,2.94,1.4,3-.4a22,22,0,0,0-.85-6.15,1.51,1.51,0,0,0-3,.39,12,12,0,0,0,1.26,6.35c.85,1.74,3.44.22,2.59-1.51a9.17,9.17,0,0,1-.85-4.84l-2.94.4a19.05,19.05,0,0,1,.74,5.36l2.95-.4a9.84,9.84,0,0,1-.73-3.24c-.09-1.92-3-1.95-3,0a28.85,28.85,0,0,0,.55,5.24c.38,1.89,3.27,1.09,2.9-.8Z"/><path class="cls-15" d="M561.56,150.42l20.32,10.19V158a174.2,174.2,0,0,0-17.09,8.77,1.5,1.5,0,0,0,1.51,2.59c9.26-4.88,1.57-15.3-2.5-20.73l-2,2a14.69,14.69,0,0,1,7.83,10.4l2.89-.8-1.91-6.13-2.9.79a19.76,19.76,0,0,1,1.51,8.25c0,1.94,2.94,1.93,3,0a38.16,38.16,0,0,0-.48-7.24l-2.2,1.7,5.79,3.4c1.42.84,3.17-1.26,1.81-2.35l-5.69-4.59-.3,2.36c.48-.3,5.66,3.25,6.39,3.67l-.3-2.35c-1.1,1.09-6.44,2.43-3.2,3.83a2.3,2.3,0,0,0,2.71-.6,1.51,1.51,0,0,0-.66-2.51,6,6,0,0,0-4.54.45c-1.32.59-.7,3,.76,2.79a30.88,30.88,0,0,0,9.72-2.88l-2.26-1.3-1.33-.44-1.15,2.74a32.64,32.64,0,0,0,6.54.69c1.63,0,2.12-2.71.4-2.94a42,42,0,0,0-11.36-.06c-1.89.25-1.91,3.26,0,3a38.9,38.9,0,0,1,10.56-.05l.4-2.95A28.31,28.31,0,0,1,578,157a1.51,1.51,0,0,0-1.16,2.75c2.32,1.38,6.12,1.53,5.84-2.15a1.52,1.52,0,0,0-2.25-1.29,26.25,26.25,0,0,1-8.21,2.47l.76,2.8,2.22-.14-.66-2.51c1.18-1-2.35-1.95-3.23-1.49A3,3,0,0,0,570,161c1.06,4.74,7.28.95,9.3-1a1.52,1.52,0,0,0-.3-2.36c-2.33-1.35-6.61-5.4-9.42-3.67a1.52,1.52,0,0,0-.31,2.36l5.69,4.58,1.82-2.36-5.79-3.4a1.51,1.51,0,0,0-2.2,1.69,33.87,33.87,0,0,1,.37,6.44h3a21.72,21.72,0,0,0-1.61-9c-.71-1.74-3.49-1.09-2.9.79l1.92,6.14a1.5,1.5,0,0,0,2.89-.8,17.37,17.37,0,0,0-9.21-12.19c-1.2-.63-3,.76-2,2,3,4,10.83,12.81,3.58,16.63l1.51,2.59a173.24,173.24,0,0,1,17.1-8.77,1.51,1.51,0,0,0,0-2.59l-20.32-10.19c-1.73-.87-3.25,1.72-1.52,2.59Z"/><path class="cls-15" d="M610,148.73c8.75,2.69,15.92,12.2,21.43,19.12a1.5,1.5,0,0,0,2.5-.66,25.38,25.38,0,0,0,.44-5.58c-.05-1.92-3-1.94-3,0l.06,3.76a1.52,1.52,0,0,0,2.8.76c3.85-5.1,0-10.88-4.33-14.15-5.72-4.27-13.44-3-19.23-7.09l-1.16,2.74a35.68,35.68,0,0,1,15.31,10.51c1.12,1.28,3.29-.4,2.36-1.82a19.82,19.82,0,0,0-3.1-3.75l-1.46,2.51c4.66,1.93,5.86,8.13,9.49,11.35a1.52,1.52,0,0,0,2.56-1.06c.41-5.83-3.42-9.57-7.83-12.79-1.42-1-2.94,1.16-1.82,2.36a17.74,17.74,0,0,1,4,6.55,1.51,1.51,0,0,0,2.9-.8A15.33,15.33,0,0,0,623,150.26c-1.73-.75-3.27,1.69-1.52,2.59a11.57,11.57,0,0,1,6.42,8.42c.39,1.88,3.29,1.09,2.89-.8A14.4,14.4,0,0,0,623,150.26l-1.52,2.59a12.41,12.41,0,0,1,7.53,8.64l2.9-.8a21.82,21.82,0,0,0-4.78-7.87l-1.82,2.35c3.49,2.55,6.67,5.43,6.34,10.2l2.56-1.07c-4.31-3.82-5.11-9.75-10.81-12.11-1.43-.59-2.49,1.54-1.46,2.51a11.34,11.34,0,0,1,2.63,3.13l2.35-1.81a38.52,38.52,0,0,0-16.63-11.28c-1.7-.6-2.46,1.82-1.16,2.74,3.37,2.36,7.12,3,11.07,3.87,5.15,1.1,16.61,6.38,11.42,13.26l2.79.76-.06-3.76h-3a15.37,15.37,0,0,1-.33,4.78l2.51-.66c-5.93-7.44-13.29-17-22.75-19.89-1.85-.57-2.64,2.33-.8,2.89Z"/><path class="cls-15" d="M798.2,353.94a40.13,40.13,0,0,1,26.2-19.65,1.51,1.51,0,0,0,0-2.89,7,7,0,0,0-7.43,2,1.51,1.51,0,0,0,1.82,2.36c7.55-4.07,15.19-9.18,23.93-10.08s18.49,3.55,18.71,13.39l2.94-.39c-2.23-8-9.38-13-17.34-14.39-10.57-1.83-20.87,3.12-30.13,7.59-1.74.84-.22,3.43,1.52,2.59,7.9-3.81,16.52-8.07,25.56-7.53,7.69.45,15.34,4.8,17.5,12.53a1.51,1.51,0,0,0,2.95-.4c-.2-9-7.65-15.37-16.3-16.37-11.3-1.31-21.37,5.36-30.86,10.47l1.82,2.35,4.51-1.19V331.4a43,43,0,0,0-28,21c-.94,1.68,1.65,3.2,2.59,1.51Z"/><path class="cls-15" d="M798.18,351.29l.42-1.24c1-1.49-1.13-2.89-2.36-1.81l-2.68,2.35c-1.26,1.1.45,3.39,1.82,2.36a96,96,0,0,0,11.53-10.27c1.33-1.39-.78-3.52-2.12-2.12a90.64,90.64,0,0,1-10.93,9.79l1.82,2.36,2.68-2.35L796,348.54a4.81,4.81,0,0,0-.83,2.75c0,1.93,3,1.93,3,0Z"/><path class="cls-15" d="M795.92,349.81l-1.63,1.71,2.56,1.06s0-.48,0-.18c0,0,.13-.44,0-.18,0-.06.24-.4.08-.18,0-.05.33-.31.12-.15l-2.26-1.3.08,2.47a1.5,1.5,0,1,0,3,0l-.08-2.47a1.51,1.51,0,0,0-2.26-1.29,3.73,3.73,0,0,0-1.66,3.28,1.51,1.51,0,0,0,2.56,1.06l1.63-1.7a1.5,1.5,0,1,0-2.12-2.13Z"/><path class="cls-15" d="M776.81,85.51c11.59,5.54,10.35,19.74,7.11,30-3.62,11.44-7.31,22.52-9.69,34.34q-3.62,18-6.83,36c-2,11.35-3.56,22.91-2.72,34.45.61,8.24,2.39,19.83,8.73,25.88,1.17,1.12,2.68,1.85,4.06.45.73-.74.7-1.88.86-2.81.63-3.62.76-6.71,2.59-10,2.78-5,7.35-8.06,12.17-10.92,5.35-3.18,10.77-6.23,16.23-9.22q15.57-8.5,31.63-16.06c19-8.92,46.26-15.46,53.7-37.77.61-1.84-2.29-2.62-2.9-.8-7,20.9-33.67,27.25-51.47,35.58q-15.21,7.13-30,15.12c-8.71,4.71-18.53,9.18-26.15,15.57a24.42,24.42,0,0,0-8.52,15.11,26.66,26.66,0,0,0-.27,3.4c-.5,0-2.11-3.24-2.31-3.58-5.57-9.92-6-22.12-5.35-33.22.73-12,3.22-23.74,5.45-35.49,2.16-11.34,4.08-22.77,6.93-34,3.94-15.52,19.63-44.46-1.73-54.67-1.73-.83-3.25,1.75-1.51,2.59Z"/><path class="cls-15" d="M765.65,227.75c.42,4.73,6.65,5.9,10.16,3.91,3.81-2.15,6-5.74,10.37-7.19,2.89-.95,5.88-1.41,8.62-2.79,1.72-.87.21-3.45-1.52-2.59-3.15,1.59-6.77,1.85-10,3.27a19.22,19.22,0,0,0-4,2.39c-1,.77-1.79,1.86-2.81,2.57s-7.53,3.57-7.81.43c-.17-1.91-3.17-1.93-3,0Z"/><path class="cls-15" d="M775.25,236.24a6.18,6.18,0,0,0-1.76-3.6c-1.06-1.19-2.8.09-2.51,1.46a10.57,10.57,0,0,0,1.45,3.56l2.36-1.82-1.28-2.16c-.59-1.46-3-1.43-3,.4l0,1.3,2.8-.76a25.44,25.44,0,0,0-1.88-3.39,1.5,1.5,0,0,0-2.59,1.51l3.08,5.41c.82,1.43,3.4.45,2.74-1.16l-1.2-3c-.71-1.74-3.44-1.11-2.9.8l1.24,4.37,2.74-1.15-1.91-3.8c-.76-1.52-3.26-.46-2.75,1.15l1.06,3.3a1.5,1.5,0,0,0,2.9-.79,18,18,0,0,0-2.9-6.63c-.89-1.29-3.41-.53-2.74,1.16l4.43,11c.52,1.28,2.49,1.56,2.89,0a16.86,16.86,0,0,0,.5-6.25c-.2-1.87-3.05-2-3,0a21.91,21.91,0,0,0,.8,5.52,1.51,1.51,0,0,0,2.89,0c1.23-3-.11-6.74,1.68-9.5l-2.59-1.52a7.85,7.85,0,0,1-1.77,2.5l1.46-.39.66.12a1.51,1.51,0,0,0-1.06-2.56h-1.31l1.44,1.9c1.31-3.22,5.4-5.88,8.6-6.89l-1.16-2.74a29.94,29.94,0,0,0-7.73,8.25l2.59,1.51a26,26,0,0,1,4.62-5.7l-2.35-1.82L777.27,230c-1,1.66,1.48,3,2.59,1.51.75-1,3.56-5.92,5-5.79l-1.06-2.56a55.14,55.14,0,0,0-8.25,10.28c-.88,1.41,1.3,3.19,2.36,1.82l3.17-4.09-2.35-1.82-1.45,2.49a1.5,1.5,0,0,0,2.59,1.52l1.45-2.5c.82-1.42-1.28-3.2-2.36-1.81l-3.18,4.09,2.36,1.82a51.78,51.78,0,0,1,7.78-9.68,1.52,1.52,0,0,0-1.06-2.56c-3.61-.33-5.83,4.83-7.61,7.28l2.59,1.51,2.61-4.16c.92-1.47-1.14-2.95-2.36-1.81a28.2,28.2,0,0,0-5.09,6.31c-1,1.66,1.56,3.14,2.59,1.51a25.58,25.58,0,0,1,6.66-7.17c1.27-.94.59-3.3-1.16-2.74-4.35,1.37-8.94,4.67-10.69,9a1.5,1.5,0,0,0,1.45,1.9h1.31l-1.06-2.56c-1.22,1.24-2.2,3.53-.2,4.67,2.21,1.27,3.76-1.76,4.56-3.26a1.5,1.5,0,0,0-2.59-1.52c-2.07,3.2-.61,6.85-2,10.23h2.89a19.45,19.45,0,0,1-.69-4.73h-3a15,15,0,0,1-.39,5.45h2.89l-4.42-11-2.75,1.16a15.92,15.92,0,0,1,2.59,5.9l2.9-.79-1.06-3.3-2.74,1.15,1.91,3.8c.77,1.54,3.19.46,2.74-1.15L773.55,234l-2.9.8,1.21,3,2.74-1.16-3.08-5.4-2.59,1.51a25.56,25.56,0,0,1,1.88,3.4c.63,1.37,2.84.66,2.79-.76l0-1.3-2.94.4a12.33,12.33,0,0,0,2,3.48c1.08,1.33,3.25-.39,2.35-1.81a5.69,5.69,0,0,1-1.14-2.85l-2.51,1.46,1,2.28c.28,1.9,3.18,1.09,2.89-.8Z"/><path class="cls-15" d="M772.58,234.64a5.08,5.08,0,0,0,1.28-.63,1.52,1.52,0,0,0,0-2.59,3.08,3.08,0,0,0-1.69-.51,1.5,1.5,0,0,0,0,3c-.12,0-.09,0,.09,0-.1,0-.08,0,.09.08v-2.59c-.12.08-.24.16-.37.23s-.29.13-.2.1a1.54,1.54,0,0,0-1,1.84,1.51,1.51,0,0,0,1.85,1Z"/><path class="cls-15" d="M788.81,84a14.67,14.67,0,0,0,6.67,14.4c2.2,1.36,4.38.93,3.9,5-.16,1.37-1.66,3.21-2.24,4.43a29.08,29.08,0,0,0-3,10.09l1.11-1.44-1.07.21,1.84,1c-1.44-6.58,2.87-13.42-1.1-19.34-2.2-3.28-4-5.69-5.13-9.55-.71-2.38-1.35-4-3.61-5.23l-.36,2.74,3.88-.61L788,83.52c-2.23,3.48,1.21,8,2.69,11.23l2.35-1.82-1-1.28c-.81-1.59-3.06-.43-2.74,1.15a9.38,9.38,0,0,0,4.41,6.54c2.18,1.28,3.79,2.59,3.23,5.5-.42,2.16-2.37,4.8-3.34,6.77l2.59,1.52a24.11,24.11,0,0,0,1.9-13.09l-2.26,1.3.7,1c.23,1.89,3.23,1.91,3,0a4.28,4.28,0,0,0-2.19-3.64,1.5,1.5,0,0,0-2.25,1.29,21.35,21.35,0,0,1-1.49,11.57c-.74,1.73,1.72,3.28,2.59,1.52,1.56-3.17,5.75-8.67,4.71-12.48a3.91,3.91,0,0,0-2-2.48c-3-1.91-5.82-1.63-6.73-6.16l-2.74,1.15A4.69,4.69,0,0,0,791,95.05a1.51,1.51,0,0,0,2.36-1.81c-.81-1.74-3.9-6.32-2.69-8.21.77-1.21-.5-2.39-1.7-2.2l-3.87.61c-1.31.21-1.42,2.16-.36,2.74,2.41,1.34,2.73,6.22,4,8.61,1.17,2.21,3.43,4,4.48,6.2,1.48,3.08,0,7.15-.35,10.34a21.58,21.58,0,0,0,.35,7.17,1.52,1.52,0,0,0,1.84,1l1.07-.21a1.52,1.52,0,0,0,1.1-1.45c.43-4.88,2.9-8.66,4.8-13,.73-1.66,1.52-3.48.82-5.29-1-2.5-3.78-2.52-5.8-3.78-4.07-2.53-5.77-7.2-5.18-11.81.25-1.91-2.76-1.89-3,0Z"/><path class="cls-15" d="M849.76,185a52.42,52.42,0,0,0,17.44,5.39l-9.05-2.24c7.21,5.3,17.21,4.71,25.27,8.59a27.29,27.29,0,0,1,12.26,12.28,34.13,34.13,0,0,1,3.43,17.11l7-6.92c2.25-2.24,4.56-4.54,5.88-7.43a20.18,20.18,0,0,0,1.36-4.63,41.7,41.7,0,0,0,.27-13.83c-1.09-.41-2.29.39-3,1.36a24.13,24.13,0,0,1-1.85,3c-.81.85-2.31,1.24-3.1.38A8.92,8.92,0,0,0,904,202a15.18,15.18,0,0,0,8-4.11c.83,2.47-.29,5.11-1.1,7.58s-1.19,5.56.69,7.37c2.56-5.4,3.22-11.54,2.82-17.5a104.87,104.87,0,0,0-3.22-17.61c-.71-2.95-1.42-5.91-2.35-8.8a63.15,63.15,0,0,0-7-14.8,13.45,13.45,0,0,0-3.28-3.83c-2-1.48-4.69-1.83-7.21-2.13a6.84,6.84,0,0,0-2.63,0,5.75,5.75,0,0,0-2.42,1.63c-4.53,4.57-6.59,11.16-11.16,15.69-3.85,3.79-9.08,5.75-13.93,8.14s-9.75,5.63-11.7,10.67"/><path class="cls-15" d="M849,186.33a58.51,58.51,0,0,0,17.8,5.54c1.85.26,2.72-2.41.8-2.89l-9.05-2.25a1.51,1.51,0,0,0-1.16,2.74c7.86,5.3,17.67,4.67,25.93,8.94,10.29,5.32,14.6,16.69,14.29,27.75a1.52,1.52,0,0,0,2.56,1.07c4.5-4.47,10.48-8.95,13.18-14.84,2.62-5.74,2.54-12.94,1.76-19a1.55,1.55,0,0,0-1.5-1.5,4.26,4.26,0,0,0-3.2.92c-1,.76-2.46,4.71-3.94,4a1.55,1.55,0,0,0-2.06.53,13.49,13.49,0,0,0-1.89,4.29,1.51,1.51,0,0,0,1.84,1.84,18.81,18.81,0,0,0,8.62-4.5l-2.5-.66c1,5.41-4.1,10.27-.26,15.3.59.78,2.08,1.16,2.59,0,5.14-11.85,2.68-24.17-.25-36.26a83.7,83.7,0,0,0-6.31-18.42c-2.31-4.57-4.87-9.65-10-11.36-3.87-1.28-7.9-1.63-11,1.22-4.41,4-6.24,10.17-10.15,14.61-7.66,8.69-21.71,8.8-26.87,20.19-.79,1.75,1.79,3.28,2.59,1.52,4.22-9.32,15.06-10.7,22.62-16.2a27.84,27.84,0,0,0,7.05-7.89c2.46-3.88,5.1-10.87,10.21-11.38,12-1.21,16.69,19,18.8,27.62,2.8,11.44,5.67,23.54.77,34.84h2.59c-3-3.94,1.43-9.94.56-14.59a1.52,1.52,0,0,0-2.51-.66,15.54,15.54,0,0,1-7.3,3.73l1.85,1.84a7.73,7.73,0,0,1,1.59-3.56l-2,.54a3.78,3.78,0,0,0,3.63.28c1.89-.86,3-4.86,5-4.78l-1.5-1.5c.73,5.76,1,12.47-1.58,17.83s-8.26,9.74-12.48,13.92l2.56,1.06c.29-10.36-3.09-20.72-11.34-27.41-8.87-7.2-21.1-5.62-30.37-11.87l-1.15,2.75,9,2.24.8-2.89a56.29,56.29,0,0,1-17.09-5.24c-1.72-.85-3.25,1.73-1.51,2.59Z"/><path class="cls-15" d="M857.57,190.23l4.17-1.81a1.51,1.51,0,0,0,.54-2.06,1.55,1.55,0,0,0-2-.54l-4.17,1.82a1.5,1.5,0,1,0,1.51,2.59Z"/><path class="cls-15" d="M858,189.63a46,46,0,0,1,4.54-1.72c1.84-.58,1-3.48-.79-2.89a49.34,49.34,0,0,0-5.27,2,1.52,1.52,0,0,0-.54,2.05,1.55,1.55,0,0,0,2.06.54Z"/><path class="cls-16" d="M857,190.3l20.31-10.59c5.57-2.91,11.27-5.59,15.72-10.14,6.83-7,4.19-16.68-3.75-21.69-1.63-1-3.14,1.56-1.51,2.59,5.21,3.29,8.85,10.34,4.29,15.75A34.85,34.85,0,0,1,881.73,174c-8.66,4.69-17.48,9.12-26.21,13.68-1.71.89-.2,3.48,1.52,2.59Z"/><path class="cls-15" d="M631.59,167.11l2.15,1.78a1.5,1.5,0,0,0,2.12-2.12l-1.13-1.15a1.51,1.51,0,0,0-2.36,1.81,4.56,4.56,0,0,0,1.36,1.74l1.81-2.35-1.52-1c-1.4-.9-3.14,1.26-1.81,2.36,5.57,4.59,7.94,11.14,9.47,18,1.68,7.58,2.81,15.31,4.17,22.95a1.52,1.52,0,0,0,1.84,1.05,9.81,9.81,0,0,1,7.9.9l1.51-2.59-7.42-3.77c-1.46-.75-3.1,1.13-1.81,2.35l2.67,2.56,1.07-2.56h-2.13c-1.64,0-2.11,2.64-.4,2.94a5.51,5.51,0,0,1,2.14.62l.4-2.94-2.36-.1v3a14.43,14.43,0,0,1,8.83,2.89l1.52-2.59a18.19,18.19,0,0,1-7.15-6.74l-2.06,2.05a16.52,16.52,0,0,1,5.23,5.94c.93,1.69,3.52.18,2.59-1.52a20.19,20.19,0,0,0-6.3-7c-1.25-.88-2.81.83-2.06,2a21.4,21.4,0,0,0,8.23,7.82,1.5,1.5,0,0,0,1.52-2.59c-2.74-2-8.54-4.55-11.93-2.53-2.32,1.39-1.72,5.06.36,6.35,5.38,3.35,8.87-7.51,1.22-7.12a1.5,1.5,0,0,0,0,3l2.36.1c1.83.07,1.85-2.35.4-2.95a5.34,5.34,0,0,0-2.14-.62l-.4,3h2.13a1.52,1.52,0,0,0,1.06-2.56L650,205l-1.82,2.36,7.42,3.77c1.71.87,3.22-1.67,1.51-2.59a13,13,0,0,0-10.2-1.2l1.84,1c-2.43-13.69-2.74-32.67-14.41-42.28l-1.82,2.35,1.52,1a1.51,1.51,0,0,0,1.82-2.36l-.89-1.13-2.35,1.82,1.13,1.15,2.12-2.12a12,12,0,0,0-2.76-2.25c-1.61-1.07-3.12,1.52-1.51,2.59Z"/><path class="cls-15" d="M565.31,149.45a18.1,18.1,0,0,1-8-4.71l-1.82,2.36q5.52,3.38,11.13,6.63a1.5,1.5,0,0,0,1.51-2.59q-5.6-3.25-11.13-6.64a1.51,1.51,0,0,0-1.82,2.36,21.38,21.38,0,0,0,9.33,5.48,1.5,1.5,0,0,0,.8-2.89Z"/><path class="cls-15" d="M542.94,150.9a1.5,1.5,0,0,0,0-3,1.5,1.5,0,0,0,0,3Z"/><path class="cls-15" d="M544.65,148.94c-.62-4.11-1.25-8.8,1.69-12.21l-2.51-1.46-1.3,4.31c-.56,1.85,2.33,2.64,2.89.8l1.31-4.31c.41-1.38-1.52-2.61-2.51-1.46-3.75,4.35-3.27,9.8-2.46,15.12.28,1.91,3.18,1.1,2.89-.79Z"/><path class="cls-15" d="M551.09,180.68c2.75,5.79,6,11.45,6.38,18,.11,1.92,3.11,1.93,3,0-.37-7.12-3.79-13.21-6.79-19.51-.83-1.75-3.41-.23-2.59,1.51Z"/><path class="cls-15" d="M624.57,154.15c6.47,2.08,16.43,8.35,15.93,16.23l2.56-1.07a26.29,26.29,0,0,1-6.94-9.08L633.76,162a16.14,16.14,0,0,1,5,7.37l2.51-1.46-4.81-4.72a1.5,1.5,0,0,0-2.35,1.81l3,5.11,2.06-2.06a12.84,12.84,0,0,1-2.93-2.86l-2.12,2.12a23.84,23.84,0,0,1,3.85,4c.93,1.24,3.34.6,2.74-1.15a39.06,39.06,0,0,0-6.58-12c-1.21-1.51-3.32.62-2.12,2.12A35,35,0,0,1,637.78,171l2.74-1.15a26.88,26.88,0,0,0-4.32-4.6,1.5,1.5,0,0,0-2.12,2.12,16.39,16.39,0,0,0,3.53,3.33c1.27.91,2.77-.83,2-2.05l-3-5.1-2.36,1.82,4.81,4.72a1.51,1.51,0,0,0,2.51-1.46,19.27,19.27,0,0,0-5.75-8.69,1.51,1.51,0,0,0-2.35,1.82,28.36,28.36,0,0,0,7.4,9.7,1.53,1.53,0,0,0,2.57-1.06c.59-9.34-10.36-16.63-18.13-19.12-1.84-.59-2.63,2.31-.8,2.89Z"/><path class="cls-15" d="M656.59,72.59a229.09,229.09,0,0,0-39.94,11.35c-12.42,4.85-22.5,13.43-33.11,21.33-4.31,3.2-18.68,12-10.3,18.63,2.66,2.1,6.31,1.92,9.31.79,2.45-.93,4.55-2.54,6.91-3.66a22.48,22.48,0,0,1,12.07-1.92c1.93.18,1.91-2.82,0-3a25.17,25.17,0,0,0-11.72,1.5c-3.72,1.47-8.64,6.18-12.86,4.63q-2.57,0-1.69-3.09-1.41-2.39.48-3.79a14.68,14.68,0,0,1,3.26-3c2.25-1.75,4.57-3.42,6.86-5.12l13.63-10.15c16.67-12.35,37.77-17.75,57.9-21.63,1.89-.36,1.09-3.25-.8-2.89Z"/></g><g id="Livello_17" data-name="Livello 17"><path d="M702.1,287.74l-3.85-6.69c-2.21-3.85-4.77-8-9-9.47-4.81-1.69-10.44,1-13,5.42s-2.39,10-.57,14.76,5.12,8.79,8.65,12.46c1.4,1.46,3,2.93,4.94,3.34,3.23.66,6.3-1.74,8.24-4.4a23.48,23.48,0,0,0,4.11-17.66"/><path class="cls-16" d="M692.54,318.65S1214,717,1222.27,718.63c122.31,31.41,130.72,0,130.72,0s4.54-18-11.85-23.87-99.86,4.87-110.61,2.39S671.88,282.29,671.88,282.29l20.66,36.36Z"/><path class="cls-12" d="M1320.2,747.15s4.13-4.14,21.49-6.62,21.48,3.31,21.48,3.31,1.66,7.44,0,12.4-21.48,7.43-21.48,7.43-16.53,0-21.49-5.78C1317.72,753.76,1320.2,747.15,1320.2,747.15Z"/><line class="cls-15" x1="693.33" y1="315.03" x2="837.26" y2="423.59"/><path class="cls-18" d="M877.78,453.17l346,261s131,1,129,5S1343.24,733,1314,732.59c-29.23,1.58-93.23-13.42-93.23-13.42L878.5,461"/><polyline class="cls-18" points="694.78 320.17 817.81 415.22 828.78 417.17 840.78 424.17 853.78 429.17 692.56 312.74 694.78 320.17"/><polyline class="cls-19" points="689.8 300.59 784.78 371.17 818.45 391.25 699.65 303.18 689.8 300.59"/><path class="cls-19" d="M881.72,442.38l347.06,257.79s105-6,113,0c11,1,11,19,11,19,0-4,5-12-7.63-22.5-5.37-9.5-114.37,1.5-114.37,1.5l-349-258-.06,2.21"/></g><g id="Livello_7" data-name="Livello 7"><path class="cls-12" d="M585.35,246.51c.39-7.79,8.07-13.24,15.56-15.45s15.62-2.48,22.55-6.06c9.64-5,17.22-16.2,28-15,5.47.6,10,4.43,13.93,8.25,19.12,18.49,40.61,55.45,43.79,66s4.83,16.29-1,25.38A41.47,41.47,0,0,1,697.5,301c-.83-.91-2.17-1.27-2.82-2.31-.81-1.27-.79-2.88-.89-4.39a24.59,24.59,0,0,0-4.3-12.4,75.29,75.29,0,0,0,4.8,35.77,5.34,5.34,0,0,1,.57,3,4.59,4.59,0,0,1-2.36,2.66,20.32,20.32,0,0,1-24-2.82c-2-1.94-3.6-4.34-6-5.66-4.47-2.42-9.91-.46-15,0a24.47,24.47,0,0,1-21.85-10.45c-4.43-6.54-5.35-14.76-7.73-22.3A58.35,58.35,0,0,0,584,245.84"/><path class="cls-12" d="M805,376.82c-3.78,9.1,3.72,18.5,8.07,27.34,2.66,5.39,4.19,11.25,5.71,17.06,1,4,2.08,8,1.85,12.11-.22,3.72-1.21,8.23,1.7,10.56a12,12,0,0,0,3.63,1.62c10.75,3.93,16.11,17.77,27.34,20,2,.41,4.13.4,6.14.93,5.26,1.39,10.53,6.41,15.29,3.74,3.38-1.9,3.82-6.51,3.86-10.4-1.75-19.49,3.21-7.92,3.21-19.49-4.14-6.61-8.34-21.52-8.17-26.29.19-5.07,2.43-9.85,3.17-14.87,2.28-15.41-10.82-30.14-26-33.62s-31.19,2.07-44.19,10.66Z"/><path d="M624.05,257a188.61,188.61,0,0,0,33.23-2.34,13.15,13.15,0,0,0,4.74-1.41,13.73,13.73,0,0,0,3.37-3.22c2-2.34,4-4.89,4.23-7.93a18.35,18.35,0,0,0-6.28,4.91,11.37,11.37,0,0,1-2.59,2.72,8.49,8.49,0,0,1-2.66.92A180.16,180.16,0,0,1,626.73,255c-1.41.07-3.31.66-3.11,2.06"/><path d="M836.2,400.52c5.47,4.91,9.88,10.09,13,16.76,2.74,5.77,4.34,11.93,6.83,17.79,3.61,8.44,11.54,16.9,21.56,13.24,1.8-.65,1-3.55-.79-2.89-13.57,4.95-18.46-12.94-21.86-22.09a59.92,59.92,0,0,0-16.67-24.93c-1.43-1.29-3.56.82-2.12,2.12Z"/><path d="M823.82,425.56l.33-2.45,6-1.49c.88.59-.51,4.65-.83,5.91a34,34,0,0,0-1,6.08A30.12,30.12,0,0,0,830.68,447c.72,1.76,3.63,1,2.89-.8a28.74,28.74,0,0,1-1.1-18.6c.78-3.17,1.57-6.78-.78-9.54a5.33,5.33,0,0,0-6.7-1.23c-3.2,1.76-3.83,5.47-4.17,8.77-.2,1.92,2.8,1.9,3,0Z"/><path d="M834,426.17c3.46-1,10.19-2,8.24,4.1-.29.89-1,1.66-1.26,2.61-.91,3-.46,6.76-.15,9.83a58.52,58.52,0,0,0,5.41,19.08c.82,1.75,3.4.22,2.59-1.52a54.64,54.64,0,0,1-4.8-16,35.42,35.42,0,0,1-.45-8.48c.28-2.41,1.88-4.14,2.28-6.39,1.29-7.38-8.06-7.43-12.66-6.09a1.5,1.5,0,0,0,.8,2.89Z"/><path d="M846.76,431.69c4.25-3.9,7.74,2.29,9.43,4.72.15.21,4.16,6.25,2.9,6a1.53,1.53,0,0,0-1.89,1.45c-.28,3.25,1.21,5.93,2.12,9a46.21,46.21,0,0,1,1.78,12.43c0,1.93,3,1.94,3,0a51.92,51.92,0,0,0-1-9.63c-.77-3.77-3.24-7.93-2.91-11.8l-1.9,1.45c1.86.29,3.49-.26,4.2-2.23,1.08-3-2.25-6.05-3.72-8.23-3.14-4.65-8.6-10.42-14.14-5.33-1.43,1.31.7,3.42,2.12,2.12Z"/><path d="M667.15,316.38c1.5-1.78-1.64-9.17-2-11.25a67.21,67.21,0,0,1-.95-13.21c0-1.93-3-1.93-3,0a67.79,67.79,0,0,0,3,22c.5,1.57,2.32,7.86,5.06,4.62,1.24-1.47-.87-3.6-2.12-2.12Z"/><path d="M655.14,312a40.42,40.42,0,0,1-5.38-19.75c0-1.93-3-1.93-3,0a43.76,43.76,0,0,0,5.79,21.27,1.5,1.5,0,0,0,2.59-1.52Z"/><path d="M640.16,311.16c-1.64,0-3.69-8.62-4-9.9a57.68,57.68,0,0,1-1.8-11.22c-.13-1.92-3.13-1.93-3,0a61.73,61.73,0,0,0,6.27,23.36,1.48,1.48,0,0,0,1.3.74l1.27,0a1.5,1.5,0,0,0,0-3Z"/><path class="cls-16" d="M801.22,381.16c5.39,5.13,12.56,7.93,18.59,12.29,3.17,2.29,6,5,9.1,7.41,4.92,3.83,10.45,6.87,15.12,11s7.13,4.57,7.25,10.8c-1.75-1.4-.12-2.23-2-1-1.25-4-3.84-5.54-8-5-.87.12-1.19-.63-2-1-1.2-.54-6.27.1-7-1-2.1-3.13-6.84-8.77-7-5,0,1.24-3.53-2.82-6-6-2.7-3.47-8.48-5.39-11-9-3.22-4.6-8.74-7.43-7.16-12.82"/><path class="cls-16" d="M800.16,382.22a71.2,71.2,0,0,0,12.13,8.28c5.42,3.15,10,7,14.91,10.89,4.26,3.41,9,6.17,13.28,9.51s9,6.07,9.3,11.77l2.56-1.06c-1.35-1.59-1.63-2.66-3.82-1.23l2.21.9c-1.11-2.95-2.72-5.29-6-6-1.77-.39-3.62-.82-5.4-1.13-1.53-.27-3.42.14-4.87-.32-3.85-1.22-6.92-10.76-10.65-4.69l1.69-.69c-2-.65-3.9-4.38-5.2-5.84a28.56,28.56,0,0,0-5.87-4.68c-4-2.67-12.94-10.39-11.9-15.68.37-1.89-2.52-2.7-2.89-.8a9.05,9.05,0,0,0,1.92,7.86,58.68,58.68,0,0,0,7.78,8.65c3,2.62,6.64,4.21,9.27,7.32,1.69,2,3.46,5.2,6.09,6.07a1.55,1.55,0,0,0,1.7-.69c.52-.85,2.67,2.25,3.4,3.19,1.11,1.44,1.54,2.31,3.28,2.81,4.72,1.38,12.66-.06,14.71,5.41a1.53,1.53,0,0,0,2.21.9c-.33.21-1.86-1.63.18.76a1.51,1.51,0,0,0,2.56-1.06c-.52-9.54-11.21-14.78-18.28-19.63-5.31-3.65-9.91-8.19-15.24-11.79-5.64-3.82-11.88-6.55-17-11.15-1.43-1.29-3.55.83-2.12,2.12Z"/><path class="cls-18" d="M816.24,413.8c1.91,1,3.06,2.81,4.75,3.9a2.81,2.81,0,0,0,1.15.56c3.46.29,6.46-4.75,9.75,1.1.84,1.48.64,3.05,2.34,3.72,3.35,1.32,10.54-2.2,11.18,3.79a1.53,1.53,0,0,0,1.9,1.45,8,8,0,0,1,4.76.48,1.51,1.51,0,0,0,1.46-2.51l-1.42-2.63-.69,1.7.17-.12-1.82-.23.18.15.31-2.36c1.1-.77-8-5.71-8.71-6-2.38-.9-4.86-1.36-7-2.84-1.72-1.22-3-2.88-4.8-4-3.69-2.26-7.45-3.88-11-6.43a133,133,0,0,0-14-8.76,1.5,1.5,0,0,0-1.82,2.35l12.24,12.14c1.17,1.16,3.39-.4,2.36-1.82l-3.86-5.31L811.32,404q4.56,3.93,9.38,7.53c1.38,1,3-1.19,1.82-2.35l-5.08-4.95a1.52,1.52,0,0,0-2.51.66c-.71,2.58,0,4.15,1.58,6.28l1.7-2.2-2.11-.87c-1.51-1-2.87,1.13-1.82,2.36,1.89,2.22,5,2.79,7.21,4.78a1.51,1.51,0,0,0,2.5-1.46l-.69-3.08-1.84,1.84a19.17,19.17,0,0,1,4.82,2.61c1.41,1,3-1.17,1.81-2.35l-.82-.86-.31,2.36,2,.46,1.46-2.5-1.37-.43a1.5,1.5,0,0,0-1.52,2.59,6,6,0,0,0,2.3,1.33c1.21.52,3-.68,2-2.05l-2.19-3.11a1.51,1.51,0,0,0-2.74,1.16c.91,3.33,4.95,6,6.92,8.78a1.51,1.51,0,0,0,2.74-1.15l-.3-1.11L834.12,420c4.74,2,9.56,1,13,5.71,1.13,1.54,3.74,0,2.59-1.51a14.24,14.24,0,0,0-5.07-4.56c-2.9-1.47-6.07-1-9-2.23a1.53,1.53,0,0,0-2.21,1.69l.31,1.11,2.74-1.15c-.93-1.33-1.87-2.61-2.92-3.84s-3.25-2.59-3.7-4.23l-2.74,1.16,2.19,3.1,2.06-2.05a5.84,5.84,0,0,1-2.3-1.33l-1.52,2.59a6.85,6.85,0,0,0,2.09.73,1.52,1.52,0,0,0,1.46-2.51,4.64,4.64,0,0,0-5.65-.93,1.51,1.51,0,0,0-.31,2.35l.83.86,1.82-2.36a23,23,0,0,0-5.53-2.91c-1.14-.43-2.08.82-1.85,1.84l.69,3.09,2.51-1.46c-2.05-1.85-5.5-2.77-7.21-4.78l-1.82,2.35a5.39,5.39,0,0,0,2.83,1.17c1.13.24,2.56-1.07,1.69-2.2a4.36,4.36,0,0,1-1.28-4l-2.5.66,5.08,5,1.81-2.36c-3-2.25-5.92-4.6-8.77-7.06-1.2-1-3.42.35-2.35,1.82L815,409l2.35-1.82L805.06,395l-1.82,2.36a130.3,130.3,0,0,1,13.27,8.23c3.81,2.7,7.89,4.48,11.76,7,3.28,2.1,5.09,4.66,8.89,6a35.19,35.19,0,0,1,7.71,3.21c1.8,1.15,3.25,2.72,5,3.89a1.46,1.46,0,0,0,1.52,0l.38-.27a1.51,1.51,0,0,0,.3-2.35l-.18-.15a1.52,1.52,0,0,0-1.81-.24l-.18.12a1.58,1.58,0,0,0-.69,1.69,6.7,6.7,0,0,0,2.2,4l1.46-2.5a13.08,13.08,0,0,0-6.36-.49l1.9,1.45a6.88,6.88,0,0,0-4.43-6c-2.1-.85-4.16-.57-6.33-.75-2.88-.23-2.46-1.62-3.95-3.73-1.93-2.72-4.71-3.22-7.88-2.68a14.15,14.15,0,0,0-3.31,1.42c.39,0-4.25-3.65-4.76-3.92-1.71-.9-3.23,1.68-1.51,2.59Z"/><path class="cls-18" d="M820.61,410.66a20.31,20.31,0,0,1,2.08,1.32c.32.23.62.47.92.72l.46.4c.25.23.31.28.17.16l-.2-.76v.15l.2-.76c0-.09.15,0,0-.06a2.54,2.54,0,0,0-.73,0,1.51,1.51,0,0,0-1.45,1.89,1.67,1.67,0,0,0,.58.9c.08.07.88.44.56.27l-.69-.9v.09l.15-1.15-.05.07,1.7-.69h-.07a1.57,1.57,0,0,0-1.85,1.05,1.51,1.51,0,0,0,1.05,1.84h.07a1.57,1.57,0,0,0,1.69-.69,1.52,1.52,0,0,0,.11-1.49,1.48,1.48,0,0,0-.61-.72c-.11-.07-.72-.3-.4-.15l.69.9,0-.12-1.45,1.9a3.66,3.66,0,0,0,2.67-.66,2,2,0,0,0,.6-2.47,7.43,7.43,0,0,0-2.1-1.92,23.37,23.37,0,0,0-2.58-1.69,1.5,1.5,0,0,0-1.51,2.59Z"/></g><g id="Livello_10" data-name="Livello 10"><path class="cls-12" d="M618.56,453c6.4-4.82,9.51-12.74,14.34-19.13,8.94-11.85,23.36-18,37.1-23.59,11.91-4.87,25.85-9.65,37.08-3.38,7.07,3.95,11.31,11.48,14.57,18.89,2.77,6.26,5.13,12.85,5.38,19.7.54,15.32-9.35,28.82-18.76,40.92a9,9,0,0,1-3.7,3.28c-2,.74-4.18,0-6.15-.75-13.88-5.5-26.19-14.26-39.46-21.09s-28.39-11.81-43-8.84l3.06-8.13"/><path class="cls-12" d="M619.62,454.07c6.45-5.21,9.58-12.83,14.5-19.3,5.5-7.25,13.17-12.32,21.22-16.37a163.12,163.12,0,0,1,26.36-10.77c9.91-3,21.06-3.74,29.12,3.92,6.68,6.34,10.85,16.39,13.25,25.1,2.76,10.05,1.07,19.84-3.61,29a92.58,92.58,0,0,1-7,11.32c-3.23,4.57-6.58,11.89-13.14,11.05-4.26-.54-9.48-4.07-13.29-6.09-4.48-2.38-8.86-4.95-13.25-7.51-17.74-10.35-37-20.72-58.25-16.88l1.84,1.85,3.07-8.13c.68-1.81-2.22-2.59-2.9-.8l-3.06,8.13c-.44,1.17.84,2,1.84,1.84,24.88-4.5,46.25,11.55,66.84,22.82a131.89,131.89,0,0,0,13.2,6.44c3.4,1.4,7,2.82,10.36.47,3.16-2.23,5.62-6.57,7.86-9.63a98,98,0,0,0,8.84-14.1c4.09-8.27,6.12-17.26,4.49-26.45a65.07,65.07,0,0,0-11.74-26.93c-13.22-17.18-34.36-9.38-51-2.4-9.52,4-19.07,8.4-26.89,15.26-8.52,7.47-12,18.94-20.78,26-1.51,1.21.63,3.32,2.12,2.12Z"/><path d="M666,445.54c4.81,6.95,13.69,9.9,22.11,10.63a60.72,60.72,0,0,0,38.57-9.9,33.19,33.19,0,0,1-4.2,17.68,5.52,5.52,0,0,1-2.15,2.4,5.89,5.89,0,0,1-3.31.22c-4.24-.52-8.46-1.05-12.69-1.59-7.12-.91-14.32-1.85-21-4.43s-12.95-7-16.33-13.32"/><path d="M664.66,446.29c14.2,18.9,45.8,12.22,62.74,1.28l-2.26-1.3c.11,5.59-.71,18.11-8.16,18.8-2.56.24-5.62-.7-8.16-1-3.46-.43-6.92-.84-10.37-1.36-11.68-1.76-23.93-5.34-30.22-16.22a1.5,1.5,0,0,0-2.59,1.52c7.81,13.51,23.47,16.53,37.76,18.38,4.5.58,9.05,1.39,13.58,1.7,2.49.18,4.27-.13,5.94-2.12,4.26-5.05,5.35-13.38,5.22-19.68a1.51,1.51,0,0,0-2.26-1.29,60.31,60.31,0,0,1-30.21,9.84c-10.16.44-21.91-1.39-28.42-10-1.14-1.53-3.75,0-2.59,1.51Z"/><path class="cls-12" d="M498.13,494.9A86,86,0,0,1,548,556.13c6-1,8.42-8,10.26-13.79,4.16-13,10.88-25.06,17.57-37a47.82,47.82,0,0,0-28.62-15.56c-6-.88-12.1-.61-18.16-.33l-24.82,1.13c-2.88.13-6.64,1.07-6.79,3.95"/><path class="cls-12" d="M497.37,496.19a85.17,85.17,0,0,1,49.18,60.33,1.52,1.52,0,0,0,1.85,1.05c7.94-2,9.84-10.74,12.19-17.48,4.16-11.94,10.38-23,16.53-34a1.56,1.56,0,0,0-.23-1.82c-10.66-11.7-24.95-16.78-40.56-16.59-9.42.11-18.86.79-28.28,1.21-4.29.2-10.89-.11-12.05,5.24-.41,1.88,2.48,2.68,2.89.79.81-3.72,7.59-2.95,10.12-3.07l10.5-.48c6.8-.31,13.65-.85,20.46-.68a47.85,47.85,0,0,1,34.79,15.7l-.23-1.81c-4.89,8.73-9.79,17.49-13.72,26.71-1.75,4.11-3.17,8.31-4.62,12.53-1.54,4.49-3.5,9.58-8.59,10.85l1.85,1.05a88,88,0,0,0-50.57-62.13c-1.75-.76-3.28,1.82-1.51,2.59Z"/><path d="M561,532.78c-6.51-11.41-17.69-19.35-29.13-25.81a141.8,141.8,0,0,1,30.39,11.14A7.94,7.94,0,0,1,565,520a2.82,2.82,0,0,1,.46,3.07c-.42.74-1.24,1.14-1.77,1.8-1.64,2-.48,5.84-2.84,6.88"/><path d="M562.33,532c-7-11.73-18-19.69-29.66-26.34l-1.15,2.74a144,144,0,0,1,23.5,7.91,43.75,43.75,0,0,1,4.91,2.28,5.1,5.1,0,0,1,3.62,4.31l-.94.86c-.32,1.35-1.68,6-2.53,6.66-1.53,1.14,0,3.74,1.52,2.59a4.87,4.87,0,0,0,2-2.37c.46-1.08.27-2.29.66-3.36.47-1.25,1.68-2.07,2.26-3.19,1.33-2.52.41-4.71-1.85-6.37-4-3-9.67-4.76-14.31-6.56a147.3,147.3,0,0,0-18-5.65,1.5,1.5,0,0,0-1.15,2.74c11.22,6.4,21.87,14,28.58,25.27a1.5,1.5,0,0,0,2.59-1.52Z"/></g><g id="Livello_13" data-name="Livello 13"><path class="cls-20" d="M289.46,601.75H282.7a173.47,173.47,0,0,0-2.23,79.84c1.13,5.45,2.95,11.43,7.8,14.17a10.41,10.41,0,0,0,14.75-13c-1.51-1.09-2.6,1.69-3.33,3.4-1.5,3.5-6.82,3.76-9.72,1.3s-3.89-6.47-4.34-10.24c-3-24.48,9-49.87,1.79-73.45"/><path class="cls-20" d="M508.82,694.76c-.67,4.16-4.14,8-3.12,12a10.61,10.61,0,0,0,2.75,4.38,59.79,59.79,0,0,0,51.31,18.57c3.81-.53,7.67-1.47,10.86-3.63s5.61-5.75,5.56-9.6c-.06-4.23-2.94-7.83-5.67-11.06a16.13,16.13,0,0,1-4.87,12.11c-5.48,5.27-14,6-21.43,4.32s-14.26-5.19-21.52-7.41c-3.76-1.16-8.05-2.26-10-5.68s-.62-7.93.93-11.66"/></g><g id="Livello_12" data-name="Livello 12"><path class="cls-21" d="M318.65,618.87c-3-2.64-7.64-2.73-11.19-.92s-6.06,5.17-7.75,8.77c-2.58,5.5-3.44,11.63-4.27,17.66l-1.57,11.4c-.69,5-1.25,10.61,1.74,14.7,3.67,5,10.9,5.49,17.14,5.46a10.52,10.52,0,0,1-9.32,6.17c-6.05.06-10.85-5.09-13.87-10.33a52.15,52.15,0,0,1-6.76-22c-.76-10,1.37-20.18-.34-30.07-.66-3.78-1.87-7.66-.88-11.36,1.6-6,8.11-9,14-10.72a103.65,103.65,0,0,1,23.71-4"/><path class="cls-21" d="M520.74,662a25.42,25.42,0,0,1-5.66,13.69c-2.62,3.18-6.11,5.86-7.39,9.78-1.53,4.66.63,9.89,4.13,13.33s8.12,5.43,12.65,7.3c6.61,2.72,13.35,5.35,20.43,6.32s14.64.12,20.69-3.68,10.25-11,9.32-18c-.2-1.52-.88-3.27-2.38-3.57-2.56-.51-3.44,3.17-4.07,5.7-1.28,5.18-6.16,8.84-11.31,10.22s-10.59.9-15.9.41a8.83,8.83,0,0,1-4.65-1.34,7.7,7.7,0,0,1-2.39-4.51,31.35,31.35,0,0,1,.07-14.73c.56-2.25,1.38-4.49,1.41-6.81.09-6.91-6.44-11.89-12.54-15.14"/><path class="cls-18" d="M527.49,668.7a66.52,66.52,0,0,1-1,16.24,23.33,23.33,0,0,0-.66,5.44c.24,5.16,4.58,9.47,9.53,11a21.32,21.32,0,0,1,.27-17.83c.68-1.4,1.55-2.9,1.16-4.41a5.83,5.83,0,0,0-1.17-2l-6.68-8.56"/><path class="cls-18" d="M526,668.7a70.23,70.23,0,0,1-.65,14c-.48,3.11-1.46,6.25-.81,9.42,1.1,5.33,5.52,8.87,10.42,10.61a1.5,1.5,0,0,0,1.84-1.84,20.84,20.84,0,0,1-1.34-12.3c.59-2.74,2.58-5.27,2.85-8,.46-4.61-5.78-9.89-8.31-13.13-1.18-1.52-3.29.62-2.12,2.12,1.86,2.38,3.73,4.74,5.57,7.13,2.16,2.82,1.29,4.41.22,7.57-.31.91-.66,1.81-.9,2.75a23.43,23.43,0,0,0,1.14,14.69l1.85-1.84a12.54,12.54,0,0,1-7.44-6.13c-1.62-3.33-.63-6.73-.07-10.21A73.07,73.07,0,0,0,529,668.7c-.1-1.93-3.1-1.94-3,0Z"/><path class="cls-18" d="M523.29,666a31.12,31.12,0,0,1-6.18,14.06,46,46,0,0,0-3.78,4.93,13.59,13.59,0,0,0,1.16,15.09l-4.32-7.6a35.12,35.12,0,0,0,2.19,5A12.57,12.57,0,0,1,510,684.35l-1.36,7c-1-2.89,0-6.11,1.49-8.76s3.59-5,5.05-7.65c1.55-2.87,2.36-6.08,3.47-9.15.36-1,.88-2.09,1.9-2.37s2.16,1.18,1.33,1.82"/><path class="cls-18" d="M521.85,665.6a31.82,31.82,0,0,1-4.25,11.17c-1.9,3-4.75,5.47-6.23,8.77a15.34,15.34,0,0,0,1.82,15.29c1.11,1.54,3.56.2,2.59-1.51l-4.31-7.6c-.82-1.43-3.36-.47-2.74,1.16a54.93,54.93,0,0,0,2.33,5.34l2.36-1.82a11.53,11.53,0,0,1-2-11.66l-2.89-.79-1.36,7h2.89c-1.36-5.84,3.34-10,6-14.6,2.07-3.56,3.15-7.63,4.35-11.51-.57,1.85,2.32,2.64,2.89.8a2.67,2.67,0,0,0-2.57-3.69c-2.56,0-3.4,3-4.08,5a62.53,62.53,0,0,1-7,13.59c-2.23,3.5-3.41,7.09-2.45,11.22a1.51,1.51,0,0,0,2.89,0l1.36-7.06a1.5,1.5,0,0,0-2.89-.79,14.55,14.55,0,0,0,2.73,14.58c1.14,1.38,3.08-.38,2.36-1.82a32.37,32.37,0,0,1-2-4.63l-2.74,1.16,4.31,7.59,2.59-1.51c-4.93-6.85-1.88-12.55,2.62-18.5a34,34,0,0,0,6.34-14.42c.36-1.89-2.53-2.7-2.89-.8Z"/><path class="cls-18" d="M317.59,607.85c-4.9-1.39-10.28.85-13.82,4.51s-5.53,8.53-7.07,13.38a57,57,0,0,0-3.12,18.86c.17,5.67,1.52,11.56-.47,16.87q.61-12.4,2.19-24.74c.52-4,1.24-8.33,4-11.29l-2.85,8.25a18.72,18.72,0,0,1,17.33-16.22,4.46,4.46,0,0,0,2.38-.49,3.58,3.58,0,0,0,1.18-2,19.37,19.37,0,0,0,.74-6.73"/><path class="cls-18" d="M318,606.41c-10.65-2.24-18,6.24-21.48,15.31a66.33,66.33,0,0,0-4.26,17.66c-.65,7.24,1.61,14.63-.59,21.69l2.95.4c.3-5.73.72-11.44,1.31-17.15.61-5.87.57-13,4.46-17.82L297.87,625,295,633.29l2.89.8c1.25-8.51,7.59-14,15.88-15.12,5.59-.77,5.92-5.58,5.8-10.73-.05-1.93-3.05-1.94-3,0,.07,3,.48,6.48-2.8,7.73-.29.11-2.76.31-3.09.38a19.66,19.66,0,0,0-7.67,3.52,20.25,20.25,0,0,0-8,13.42,1.5,1.5,0,0,0,2.89.8l2.84-8.25c.47-1.37-1.56-2.63-2.5-1.46-3.38,4.16-4.06,9.06-4.7,14.25-.92,7.59-1.55,15.2-1.95,22.84-.09,1.74,2.46,2,2.95.4,1.34-4.31,1.14-8.54.8-13A54.27,54.27,0,0,1,296.5,632c2.3-9.77,7.66-25.47,20.69-22.73,1.88.39,2.69-2.5.8-2.89Z"/><path class="cls-18" d="M319.6,595.61c-6.88-2.12-14.18.82-20.77,3.71l4.54-2.54a9.06,9.06,0,0,0-5.06.82c-4,1.5-8,3.23-11.09,6.15s-5.17,7.25-4.37,11.43c-1.54-4.65,1-9.92,5-12.77,3.1-2.22,6.88-3.26,10.56-4.25l7.49-2a48.07,48.07,0,0,0-17.34,7.14,13.83,13.83,0,0,0-4,3.65c-3.61,5.45.39,12.83-.9,19.24a28.39,28.39,0,0,1,11.69-22.4c6.48-4.64,14.6-6.27,22.48-7.49l-6.52-.78c-1.55-.19-3.7.06-3.87,1.61"/><path class="cls-18" d="M320,594.16c-7.76-1.92-14.82.79-21.92,3.86l1.51,2.59,4.55-2.54a1.51,1.51,0,0,0-.76-2.79c-10.21-.53-23.18,9-22,19.9l2.94-.4c-3-12.46,13.7-14.95,22-17.2,1.87-.51,1.08-3.29-.8-2.89-7.12,1.52-16.13,4.47-21.16,10.1-5.33,6-1.15,14-2.13,21l2.95.4a27.16,27.16,0,0,1,11.6-21.55c6.33-4.31,14.05-5.72,21.47-6.89,1.81-.29,1.12-2.77-.4-3-3.5-.42-9.68-2.52-11.68,1.58-.85,1.72,1.74,3.25,2.59,1.51s7.4-.29,9.09-.09l-.4-2.95c-8.83,1.4-18,3.33-24.95,9.31a30.42,30.42,0,0,0-10.32,22c-.07,1.65,2.71,2.09,2.95.4.85-6.13-2.87-14.44,1.35-19.65s13.44-8,19.84-9.33l-.8-2.89c-10.21,2.75-27.64,6.29-24.11,20.89.39,1.6,3.13,1.31,3-.4-1-9.15,10.34-17.35,19-16.9l-.75-2.8L298.07,598c-1.73,1-.21,3.34,1.51,2.59,6.27-2.71,12.72-5.26,19.62-3.55,1.87.46,2.67-2.43.79-2.9Z"/></g><g id="Livello_11" data-name="Livello 11"><path class="cls-12" d="M387.89,565.29l-26.17,8.1c-4.45,1.37-9,2.76-13.61,3-5.16.25-10.28-.93-15.45-1a35.51,35.51,0,0,0-16.55,3.89,6.69,6.69,0,0,0-2.82,2.23c-.87,1.41-.7,3.2-.49,4.85,1.47,11.32,3.61,23.08.13,34-2.43,7.61-7.47,14.23-9.51,22-3.54,13.46,2.62,27.49,9.83,39.4a14,14,0,0,0,3,3.87,10.41,10.41,0,0,0,5.07,2,18.74,18.74,0,0,0,18.84-9.89c3.54-7.07,2.21-15.73,5.27-23a34.11,34.11,0,0,1,6.16-9.11,108.91,108.91,0,0,1,55.5-33.76c1.33-.33,2.79-.71,3.57-1.84,1.59-2.31-.88-5.2-3.05-7-11.41-9.45-20.76-22.58-21.69-37.36"/><path class="cls-12" d="M553.91,567c-2.32,7.74-3.42,15.84-6.17,23.44-8.33,23.08-31.26,40.35-33.45,64.79-.19,2.1-.16,4.38,1.06,6.1s3.38,2.48,5.32,3.34A33,33,0,0,1,536,678.55a17.63,17.63,0,0,0,2.91,4.37,13.53,13.53,0,0,0,4.16,2.38,180.81,180.81,0,0,0,42.51,11.77,8.75,8.75,0,0,0,4.52-.15,7.39,7.39,0,0,0,3.61-4.12,20.7,20.7,0,0,0-1.79-19.64c-5.1-7.49-15.29-11.87-16.84-20.8-1.11-6.43,3.15-12.88,8.8-16.13s12.41-3.92,18.94-4,13.13.27,19.49-1.18c1.92-2.87-1.51-6.35-4.68-7.74a39.3,39.3,0,0,0-21.57-2.89c-6,.92-13.41,2.81-17.35-1.86l5.85-3.93c-1.09-4.13-6.76-4.21-10.94-5.14-7.91-1.76-13.26-9.39-15.55-17.16s-2.29-16-3.9-24"/><path d="M558.75,597.22C553.47,607.73,544.1,615.45,536,624s-15.4,19.21-14.74,31a10.85,10.85,0,0,0,1.09,4.57c1.67,3.09,5.32,4.38,8.19,6.39,6,4.2,8.89,11.84,14.87,16.11,3,2.14,6.56,3.28,10.08,4.34q10.8,3.27,21.76,6c5.31,1.31,11.81,2.19,15.47-1.88.68,2.24-1.25,4.59-3.49,5.25s-4.64.1-6.91-.46L565,691c-5.4-1.32-10.8-2.65-16-4.46-3.47-1.19-7-2.65-9.58-5.2-2.4-2.33-3.91-5.41-5.85-8.13a30.22,30.22,0,0,0-12-9.91c-1.52-.7-3.17-1.31-4.24-2.6-1.35-1.61-1.47-3.91-1.33-6,1-16.94,13.46-30.6,22.42-45a121.33,121.33,0,0,0,16.13-41.46,129,129,0,0,0,4,27.78"/><path d="M557.45,596.47c-7.1,13.51-20.1,22.1-29,34.2-5.87,8-14.46,25.06-4.24,33,2.86,2.22,6,3.52,8.6,6.19,2.4,2.47,4.25,5.42,6.41,8.09,4.35,5.34,9.45,7.88,15.92,9.87,8,2.45,16.25,5.06,24.5,6.56,5.14.93,10.21.88,14.19-2.87l-2.56-1.06c.53,6.31-8.93,3.24-11.39,2.63l-6.72-1.65c-3.77-.93-7.53-1.83-11.29-2.78-7.26-1.83-16.56-3.36-21.94-9-4.53-4.77-6.71-10.45-12.2-14.47-3.18-2.33-7.08-3.13-9-6.59-2.19-3.94-.89-8.54.38-12.73,4-13.21,13.43-23.9,20.59-35.45a124.81,124.81,0,0,0,16.28-41.81l-3-.4a140.25,140.25,0,0,0,4,28.18c.47,1.88,3.36,1.08,2.9-.79a135.49,135.49,0,0,1-3.9-27.39c-.06-1.61-2.61-2.13-3-.4-3.77,19.24-12.16,35.76-23.11,51.83-4.56,6.7-9.15,13.48-12.19,21-2.14,5.33-5.83,15.51-1.77,20.77,1.84,2.38,5.09,3.12,7.58,4.59,4.55,2.68,7.67,6.37,10.55,10.72,4.63,7,10.08,9.93,18,12.36,9.76,3,19.87,5.38,29.83,7.58,5.07,1.11,12.91,1,12.3-6.24a1.52,1.52,0,0,0-2.56-1.06c-5.34,5-14.28,1.48-20.39-.13-6.39-1.67-12.93-3.28-19.14-5.55-6.76-2.48-10.17-7.15-14.42-12.6-3.22-4.13-6.72-6.39-11-9.28-6.83-4.64-3.83-15.14-.83-21.36a61.85,61.85,0,0,1,11.14-15.4c8.17-8.66,17.35-16.37,23-27.07.9-1.71-1.69-3.22-2.59-1.51Z"/><path d="M396,595.21a47.65,47.65,0,0,1-9.78-23.49,6,6,0,0,0-1.18-3.55c-1.6-1.68-4.38-.81-6.52.1A99.45,99.45,0,0,1,335.44,576c-4.72-.22-9.55-.76-14.09.54s-8.81,5-9,9.75a19.67,19.67,0,0,0,1.29,6.2,53.27,53.27,0,0,1-3,38c-2.51,5.21-5.91,10.12-7.06,15.79-.93,4.57-.31,9.31.61,13.88a105.44,105.44,0,0,0,6,19.65c1.36,3.27,3.21,6.78,6.56,7.93,2.28.79,4.79.3,7.15-.22,3.45-.74,7-1.54,10-3.45s5.36-5.15,5.22-8.69-2.65-6.5-5.69-8.17-6.57-2.23-10-2.67c4.37,1.18,9.52,3.74,9.47,8.27a7.1,7.1,0,0,1-3.43,5.59c-5.35,3.51-13,.83-16.92-4.23s-4.93-11.75-5.39-18.13a28.41,28.41,0,0,1,.35-8.64,37.43,37.43,0,0,1,3.19-7.6A95.43,95.43,0,0,0,320.06,607c.45-4.62.6-9.46,2.86-13.51,4.1-7.38,13.46-9.62,21.76-11.14l16.32-3c5.59-1,11.55-2,16.79.19,7.24,3,11.15,11.37,18.32,14.57"/><path d="M397.33,594.45a48.84,48.84,0,0,1-7.47-13.73,46.78,46.78,0,0,1-1.79-7c-.33-1.87-.27-4.13-1.36-5.77-1.35-2-3.48-2.45-5.79-2-5.62,1-11.09,4.18-16.69,5.62-11.41,2.92-22.47,3-34.12,2.7-7.22-.19-16.47,1.55-18.81,9.62-1.07,3.69.46,7.12,1.39,10.67a52.13,52.13,0,0,1,1.45,18.11A51,51,0,0,1,310,628.4c-2.13,4.82-5.15,9.23-6.89,14.21-3.24,9.29-.37,19.83,2.48,28.86,2,6.46,4.62,17.16,12.76,18.17,7.36.91,19.28-3.21,21.79-10.87,3.35-10.26-8.6-14.58-16.3-15.63-1.86-.25-2.71,2.33-.8,2.89,4.11,1.22,12.15,5.18,6.47,10.52-3.94,3.69-10.48,1.77-14-1.38-5.89-5.27-7.09-15.08-7-22.56.11-8.4,5.81-16.18,8.46-24.07a99.79,99.79,0,0,0,4.63-22.36c.87-9.17,3.12-16,12.31-19.58,6.68-2.59,14.11-3.39,21.11-4.67,8.77-1.61,18.64-4.6,26.32,1.53,4.86,3.87,8.3,9.08,14,11.91,1.72.86,3.24-1.72,1.51-2.59-6.55-3.26-10.21-10-16.49-13.63-6.68-3.85-14.43-2.25-21.6-.95-12.26,2.24-32.19,2.66-38,16.23-1.37,3.22-1.7,6.76-2,10.2a106.81,106.81,0,0,1-2.41,15.3,96,96,0,0,1-4.13,12.91c-1.7,4.27-4.22,8.27-5.66,12.63-2.27,6.84-1.06,16.13,1.28,22.86,2,5.86,6.08,10.95,12.26,12.66,5.27,1.47,12.58-.38,14.09-6.4,1.62-6.46-5.25-10-10.33-11.45l-.8,2.89c4.5.62,9.56,1.32,12.63,5,4.69,5.66-.69,11.57-6.24,13.55-4,1.43-10.25,3.36-13.91.67-3.43-2.53-4.85-8.13-6.16-11.93-2.68-7.78-5.51-16.8-4.48-25.08,1-7.73,6.19-14.08,8.92-21.22a54.53,54.53,0,0,0,3.53-20.34,55.1,55.1,0,0,0-1-9.67c-.86-4.36-3.77-9.66-1.51-13.93,4.4-8.3,16.77-5.57,24.29-5.5a101.52,101.52,0,0,0,22.32-2.33,97.94,97.94,0,0,0,13.24-3.87c1.55-.57,4-2.2,5.63-2.21,1.26,0,3.95,1.39,4.42,2.29s.37,2.68.59,3.82A50,50,0,0,0,394.74,596c1.15,1.52,3.76,0,2.59-1.51Z"/></g><g id="Livello_16" data-name="Livello 16"><path class="cls-22" d="M805.76,93.87c-4.66,7.39-5.14,11.58-8.82,19.5-1.2,2.58,0,5.77-.27,8.59-.5,4.3.88,14.76,1.65,19,.57,3.17,1.82,6.76,2.48,9.92.62,3,.72,1.66,2.48,4.13,4.25,6,8.38,14,11.57,20.66,1.16,2.42,3.88,4.38,5.78,2.48,3.31-3.31,3-3.62,5.79-6.61,2.37-2.5,4.46-4.75,6.61-7.44,2-2.52,4.47-2.86,7.44-4.13,4.1-1.76,8.18,2.1,12.38,3.64,4.74,1.73,9.52,3.55,14.54,4.07s10.41-.4,14.28-3.64c3-2.48,4.79-6.07,6.24-9.67a74.86,74.86,0,0,0,4-13.18,3.23,3.23,0,0,1,.66-1.63c1.38-1.44,3.71.62,5.69.36,2.41-.31,2.87-3.58,2.69-6l-.37-5a6.12,6.12,0,0,0-3-5.61,244.31,244.31,0,0,0-20-14.85c-1.86-1.19-3.75-2.34-5.53-3.66a93,93,0,0,1-8.87-8.1A139.1,139.1,0,0,0,844,81.31c-3.8-2.55-7.81-5-12.25-6a25.85,25.85,0,0,0-18.88,3.06c-5.64,3.29-6,8.44-8.92,14.26"/><path class="cls-23" d="M869.05,141.18a28.16,28.16,0,0,0-3.6,12.23c-.11,1.73,2.48,2,2.95.4l.08-.29c.55-1.85-2.34-2.65-2.89-.8l-.09.3,3,.39a24.43,24.43,0,0,1,3.2-10.72,1.5,1.5,0,0,0-2.6-1.51Z"/><path class="cls-23" d="M861.55,138.87a27.25,27.25,0,0,0-5,15.49c0,1.93,3,1.94,3,0a24.79,24.79,0,0,1,4.6-14c1.13-1.58-1.47-3.08-2.59-1.52Z"/><path class="cls-23" d="M875.7,149.35c1.5,0,3,0,4.47-.11,1.06-.05,3.67-.67,4.58,0l-.69-.9.19.52c.47,1.28,2.57,1.57,2.9,0l.13-.61c.39-1.89-2.5-2.69-2.9-.8l-.13.61h2.9c-.7-1.91-2.13-2.08-4-2q-3.72.25-7.45.29a1.5,1.5,0,0,0,0,3Z"/><path class="cls-23" d="M891.79,137.42s3.23,2,3.57,2.11a6.79,6.79,0,0,0,3.83.44c1.9-.3,1.09-3.19-.8-2.9-3,.47-5.85-4.56-8.72-1.77-1.39,1.35.74,3.47,2.12,2.12Z"/><path class="cls-23" d="M821.47,83.88A28.07,28.07,0,0,0,817,105.27c1.16,5.49,6.09,13.74,11.4,16.07,1.75.77,3.28-1.82,1.52-2.59-4.57-2-9-9.56-10-14.28-1.48-6.66.43-13.52,4.14-19.08,1.08-1.61-1.52-3.11-2.59-1.51Z"/><path class="cls-23" d="M826,102.92c-.24-1.16-.94-3.59-.32-4.75s2.94-.68,4-.66a1.5,1.5,0,0,0,0-3c-2.16,0-4.9-.29-6.3,1.74s-.71,5.21-.23,7.47c.4,1.89,3.29,1.09,2.89-.8Z"/><path class="cls-23" d="M826.8,103.9a2.94,2.94,0,0,1-.19,3.78c-1.32,1.41.8,3.54,2.12,2.13a6,6,0,0,0,.19-8c-1.23-1.49-3.34.65-2.12,2.12Z"/><path class="cls-23" d="M808.34,123a36.67,36.67,0,0,1,.78,14.15,24.38,24.38,0,0,0-.46,4.66c.2,3.9,2.81,7.21,5.31,10.22l5.24,6.32a32.6,32.6,0,0,1,3.45,4.74c1.42,2.56,1.74,7.26,2.1,10.16.07.56,2.57-2.09,2.73-2.2,4-2.77,4.14-5.5,8.14-8.3,1.53-1.07,3.64-1.81,4.84-2.72.27-.21,2.72-.59,2.47-.83-.82-.82-.7-.36-1.68-1a107.36,107.36,0,0,1-30.64-32.28,19.15,19.15,0,0,0-2-2.88"/><path class="cls-23" d="M809.75,95c-.87,3.91-4.76,4.72-7.44,7a13.83,13.83,0,0,0-3.33,4.53,34.84,34.84,0,0,0-3.51,12.76c-.2,1.92,2.8,1.91,3,0,.57-5.33,1.87-12,6.39-15.48,3.24-2.5,6.8-3.56,7.78-8,.42-1.88-2.48-2.69-2.89-.8Z"/><path class="cls-23" d="M805,98.94c-.35.39-.67.8-1,1.22h2.59l-.08-.12a1.56,1.56,0,0,0-1.69-.69c-.83.23-1,.66-1.42,1.33l.9-.69-.17,0,1.84,1.84.44-1.35a1.51,1.51,0,0,0-2.2-1.69,4.83,4.83,0,0,0-1.36,1.38l2.75,1.16a1.9,1.9,0,0,1,.34-.83c1.07-1.62-1.51-3.09-2.59-1.52a14.77,14.77,0,0,1-1.27,1.57l2.51,1.46a4.52,4.52,0,0,1,.77-1.59c1.13-1.56-1.47-3-2.6-1.51a17.41,17.41,0,0,0-2.82,6.08c-.47,1.87,2.42,2.67,2.89.8a15.23,15.23,0,0,1,2.53-5.37L802.73,99a6.7,6.7,0,0,0-1.06,2.3,1.51,1.51,0,0,0,2.5,1.46,19,19,0,0,0,1.74-2.17L803.32,99a4.41,4.41,0,0,0-.65,1.55,1.51,1.51,0,0,0,2.74,1.15.89.89,0,0,1,.28-.3l-2.2-1.7-.44,1.35a1.51,1.51,0,0,0,1.84,1.85,1.58,1.58,0,0,0,1-.58,2,2,0,0,0,.24-.33c.31-.6.14-.52-.5.23l-1.69-.68.08.11a1.53,1.53,0,0,0,2.59,0c.17-.21.34-.41.53-.61,1.28-1.43-.83-3.56-2.13-2.12Z"/><path class="cls-23" d="M795.79,118.54c-.28,7.71,1.34,15.84,2.29,23.5.45,3.52.95,7.25,2.51,10.49,1.48,3.07,3.9,5.48,5.44,8.58,1.75,3.52,3.89,6.8,5.94,10.15,1.38,2.23,2.63,6.22,5,7.65,4.39,2.7,8.61-5,10.95-7.54,1.31-1.42-.81-3.54-2.12-2.12-1.54,1.66-2.88,4.38-4.78,5.6-3.3,2.12-4.53-2-6-4.47-2.93-4.78-5.29-10.36-8.49-14.88-2-2.82-3.74-5.13-4.53-8.54a69.58,69.58,0,0,1-1.33-9.53c-.56-6.28-2.05-12.59-1.82-18.89.07-1.93-2.93-1.93-3,0Z"/><path class="cls-12" d="M814.61,175.53a60.49,60.49,0,0,0-13-23.58c-1.28-1.45-3.4.68-2.12,2.12a56.94,56.94,0,0,1,12.2,22.25,1.5,1.5,0,0,0,2.89-.79Z"/><path class="cls-13" d="M800.84,155.93v-2.67h-3l.17,1.35c.23,1.85,3,2,3,0V153.2h-3l.17,1.68a1.5,1.5,0,0,0,3,0l.17-1.66h-3l.08,1.4c.12,1.91,3,1.95,3,0a105.88,105.88,0,0,0-2.1-18c-1.06-5.53-.43-11.64-2.39-16.94a1.53,1.53,0,0,0-2.74-.36,15.11,15.11,0,0,0-2.93,12c.29,1.91,3.18,1.1,2.9-.79a12.38,12.38,0,0,1,2.62-9.67l-2.74-.36c1.74,4.72,1.11,10.16,2,15.1a114.14,114.14,0,0,1,2.35,19.05h3l-.08-1.4a1.5,1.5,0,0,0-3,0l-.17,1.66h3L801,153.2c-.19-1.89-3-2-3,0v1.41h3l-.17-1.35c-.23-1.85-3-2-3,0v2.67a1.5,1.5,0,0,0,3,0Z"/></g><g id="Livello_14" data-name="Livello 14"><path class="cls-12" d="M823.21,80.55c-6.8,1.77-7.15,11.71-12.51,16.25-4.29,3.63-11.36,2.69-15.26-1.36s-4.8-10.4-3.14-15.77c.85-2.75,2.3-5.36,2.47-8.23.36-6.07-5-11.31-4.9-17.39a19.15,19.15,0,0,1,1.38-5.83c4-11.38,9-22.86,17.72-31.23A45.13,45.13,0,0,1,819.66,9.4C833.56,2.33,850.42,3,865.22,8,873,10.59,880.45,14.31,887.83,18c5.72,2.87,11.54,5.81,16.23,10.17s8.21,10.43,8,16.84c-.05,1.92-.41,3.92.3,5.7a24.05,24.05,0,0,0,2.23,3.41c1.29,2.07,2.89,3.22,3.94,5.43,2.81,5.86.83,5-2.48,23.14-14.87,15.7-38,10.72-59.2,13.83-5.54.82-11.35,1.78-16.62-.11-7.1-2.55-11.47-9.61-17.66-13.92"/><path class="cls-12" d="M822.81,79.1c-9.26,3.14-8.17,19-19.24,18.45-8.16-.43-11.71-9-10.19-16.12,1.34-6.24,4.06-10.09,1.6-16.46-.94-2.42-2.33-4.71-3-7.22-1.06-3.87,0-7.06,1.3-10.68A100.74,100.74,0,0,1,802.11,28,46.21,46.21,0,0,1,838.77,5.81c14.7-1,28.44,3.8,41.47,10.11,13.22,6.4,30.34,13.4,30.28,30.56,0,4.67,1.82,7.23,4.68,10.89,2,2.54,3.47,4.93,3.08,8.18-.45,3.62-1.72,7.24-2.47,10.8-.86,4.05-1.49,6.44-4.95,9a34.86,34.86,0,0,1-9.71,5c-12.7,4.26-26.54,2.86-39.7,4.16-7.55.75-15.85,3.32-23-.51-5.81-3.12-9.85-8.88-15.12-12.77-1.56-1.14-3.06,1.46-1.52,2.59,5.49,4,9.57,10,15.74,13.08s13.06,2,19.7,1.11c14.11-1.93,28.82-.25,42.64-4.15,5.85-1.65,11.9-4.52,16.15-9,2.18-2.3,2.13-5.41,2.78-8.45.57-2.62,1.24-5.22,1.84-7.83.54-2.37,1-4.61.31-7-1.64-5.78-7.15-8.79-7.48-15.1-.37-6.93-1.86-12.32-6.7-17.63-5.42-5.92-12.88-9.45-19.94-13C872.51,8.67,857.67,2.28,841.27,2.7c-14.78.38-28.62,6.55-37.87,18.24a77.6,77.6,0,0,0-10.66,19.15c-2.38,5.82-5.55,12.09-3.67,18.46,1.06,3.6,3.43,6.81,4,10.54.78,4.71-2.35,8.8-2.94,13.33-.8,6.19,1.44,13,7.07,16.28,4.65,2.67,10.9,2.56,14.91-1.22,4.54-4.27,5.12-13.34,11.45-15.48,1.82-.62,1-3.52-.8-2.9Z"/><path d="M920.69,63.45c-7-1.59-14.35-1.31-21.56-1l-54.92,2.19C864.72,54.11,888.34,52,911.29,50a11.27,11.27,0,0,0-9.28,1.4,21.38,21.38,0,0,0,10.22-9.85c-1.37,3.62.25,7.69,2.36,10.93s4.78,6.26,5.82,10"/><path d="M921.08,62c-12-2.45-24.54-1-36.66-.5l-40.21,1.61.76,2.8c20.61-10.31,43.7-12.49,66.32-14.44,1.58-.14,2.17-2.57.4-2.95a14.11,14.11,0,0,0-10.44,1.55c-1.7,1-.2,3.44,1.52,2.59a24.14,24.14,0,0,0,10.75-10.38l-2.74-1.16C908.49,50,916.32,55.24,919,62.85c.63,1.81,3.53,1,2.89-.8-2.32-6.66-10.15-12.57-8.19-20.12a1.51,1.51,0,0,0-2.74-1.16,21.38,21.38,0,0,1-9.68,9.31l1.52,2.59a10.72,10.72,0,0,1,8.13-1.24l.39-3c-23.17,2-46.73,4.29-67.84,14.85a1.51,1.51,0,0,0,.76,2.79l38.25-1.53c12.42-.49,25.55-2.2,37.83.31,1.88.38,2.69-2.51.79-2.89Z"/></g><g id="Livello_15" data-name="Livello 15"><path class="cls-11" d="M849.41,85.5q10.17-.94,20.4-.91c12.66,0,25.41,1.22,37.92-.7,3.11-.48,6.58-1.07,9.15.74s3.24,5.63,3.22,8.93a50.9,50.9,0,0,1-11.5,31.72,9.67,9.67,0,0,1-3.2,2.81,10.77,10.77,0,0,1-5.36.59c-10-.62-20.09-1.49-29.91-3.65s-19.45-5.63-27.85-11.15a4,4,0,0,1-1.22-1.08c-.69-1.07-.24-2.5.23-3.69L845,99.78c1.76-4.49,3.55-9.08,3.84-13.9"/><path class="cls-17" d="M902.45,84.77c3,7.17,5.49,15.58,3.53,23.1s-8.14,15.1-14.28,19.88c-.82.82,7.44.82,8.27.82.58,0,2.22-2.83,2.55-3.31a65.63,65.63,0,0,0,8.54-16,32.63,32.63,0,0,0,1.22-18c-.79-3.28-1.5-7.18-4.87-7.32.54,0-.32.28.23.28"/></g><g id="Livello_18" data-name="Livello 18"><path class="cls-17" d="M375.27,612.78a20.57,20.57,0,0,0,2.42,8.1c.92,1.69,3.51.18,2.59-1.52a16.75,16.75,0,0,1-2-6.58c-.16-1.9-3.16-1.92-3,0Z"/><path class="cls-17" d="M375.91,614.27a4.06,4.06,0,0,1-3.06-.72c-.08-.08-.33-.69-.41,0,0-.12.38.21.26,0a9.09,9.09,0,0,1,.72,1.44c.64,1.8,3.54,1,2.89-.8-.52-1.48-1.26-3.1-2.91-3.56a2.92,2.92,0,0,0-3.64,1.81,3.7,3.7,0,0,0,1.86,3.88,7.59,7.59,0,0,0,4.29.89c1.93-.09,1.94-3.09,0-3Z"/><path class="cls-17" d="M327.26,629c13-4.21,24.94-12.19,38.89-12.66,1.93-.06,1.94-3.06,0-3-14.29.48-26.41,8.46-39.68,12.76-1.83.6-1.05,3.5.79,2.9Z"/><path class="cls-17" d="M334.44,618.25a59.22,59.22,0,0,1,26.42-2.8c1.91.23,1.89-2.77,0-3a61,61,0,0,0-27.22,2.91c-1.82.62-1,3.52.8,2.89Z"/><path class="cls-17" d="M333.28,605.76a251.29,251.29,0,0,1,39.24,8.14c1.86.55,2.65-2.35.8-2.89a255.63,255.63,0,0,0-40-8.25c-1.91-.24-1.9,2.77,0,3Z"/><path class="cls-17" d="M332.83,641.87c3.13,1.18,5.6,4.25,7.73,6.73a60.85,60.85,0,0,1,6,8.37,1.5,1.5,0,0,0,2.59-1.52c-3.58-6-8.71-13.92-15.49-16.47-1.81-.69-2.59,2.21-.8,2.89Z"/><path class="cls-17" d="M337.21,635.46c3.13,4.67,7.78,8.56,9.19,14.17.48,1.88,3.37,1.08,2.9-.79-1.5-6-6.2-10-9.5-14.9-1.07-1.59-3.67-.09-2.59,1.52Z"/><path class="cls-17" d="M342.13,633.42a29.93,29.93,0,0,1,4.74,6.39c.62,1.09,1.19,2.2,1.74,3.32.16.32,1.22,3.17,1.59,2.28l2.06-.54-.13-.08.54,2.05.06-.08c1.17-1.53-1.43-3-2.59-1.51l-.06.08a1.52,1.52,0,0,0,.54,2l.12.08a1.51,1.51,0,0,0,2.06-.54c.89-2.12-1.49-5.16-2.44-7a35.41,35.41,0,0,0-6.11-8.64c-1.35-1.38-3.47.74-2.12,2.12Z"/><path class="cls-17" d="M347.69,631.72a22,22,0,0,1,7.49,10.95c.55,1.85,3.45,1.06,2.89-.79a24.72,24.72,0,0,0-8.26-12.29c-1.49-1.19-3.63.92-2.12,2.13Z"/><path class="cls-17" d="M353.76,629.45a24.84,24.84,0,0,1,4.85,8.33c.63,1.82,3.53,1,2.9-.79a28.93,28.93,0,0,0-5.63-9.67c-1.27-1.45-3.39.68-2.12,2.13Z"/><path class="cls-17" d="M359,628.6a22.06,22.06,0,0,1,5.33,6.21,1.5,1.5,0,0,0,2.59-1.52,24.15,24.15,0,0,0-5.8-6.81c-1.49-1.2-3.63.91-2.12,2.12Z"/><path class="cls-17" d="M364,625.54a15.52,15.52,0,0,0,4.56,5,1.51,1.51,0,0,0,2.05-.54,1.53,1.53,0,0,0-.53-2.05,12,12,0,0,1-3.49-3.91,1.5,1.5,0,0,0-2.59,1.52Z"/><path class="cls-17" d="M370.49,621.48a10.6,10.6,0,0,1,3.09,2.95,1.54,1.54,0,0,0,2.05.54,1.51,1.51,0,0,0,.54-2.05,14.06,14.06,0,0,0-4.17-4c-1.64-1-3.15,1.57-1.51,2.59Z"/><path class="cls-17" d="M576.55,617.63l-3.87-1.48c-1.47-.56-2.42,1.51-1.46,2.51a7.37,7.37,0,0,0,3,1.92l.4-3-5.12.58a1.52,1.52,0,0,0-1.29,2.26c1.56,2.54,4.09,1.74,6.46.81,4.15-1.63,8.24-3.42,12.29-5.28l-1.82-2.36c-2.39,2.71-6.31,4.09-9.46,5.72-1.72.88-.2,3.47,1.51,2.59,3.43-1.77,7.47-3.24,10.07-6.18a1.51,1.51,0,0,0-1.81-2.36c-1.48.68-13.8,6.93-14.65,5.54l-1.3,2.26,5.12-.58a1.5,1.5,0,0,0,.4-2.94l-1.64-1.15-1.46,2.51,3.86,1.47c1.81.69,2.59-2.21.8-2.89Z"/><path class="cls-17" d="M562.16,620q5.16,2.47,10.37,4.85c3,1.36,5.75,2.73,9.1,2.5,1.91-.13,1.93-3.13,0-3-3.57.25-6.88-1.75-10-3.21-2.65-1.22-5.29-2.47-7.92-3.73-1.74-.83-3.26,1.76-1.52,2.59Z"/><path class="cls-17" d="M560.09,626.08A44.58,44.58,0,0,0,576,632.39c1.89.36,2.7-2.53.8-2.89a42.25,42.25,0,0,1-15.2-6c-1.63-1-3.14,1.55-1.52,2.59Z"/><path class="cls-17" d="M560.49,634a46.56,46.56,0,0,0,7.55,1.7c2.56.35,5.27.14,7.78.76,1.88.46,2.68-2.43.8-2.89a48,48,0,0,0-6.78-.66,43.8,43.8,0,0,1-8.55-1.8c-1.85-.57-2.64,2.32-.8,2.89Z"/><path class="cls-17" d="M556.73,640.71q9.16-.35,18.33-.15a1.5,1.5,0,0,0,0-3q-9.16-.19-18.33.15c-1.92.08-1.93,3.08,0,3Z"/><path class="cls-17" d="M552.71,649.32c6-1.64,15.32-4.24,21.13-.89a1.5,1.5,0,0,0,1.51-2.59c-6.66-3.84-16.51-1.31-23.44.59a1.5,1.5,0,0,0,.8,2.89Z"/><path class="cls-17" d="M555.88,653.69c6,0,11.57,1.49,17.63.83,1.9-.21,1.92-3.21,0-3-6,.66-11.66-.85-17.63-.83a1.5,1.5,0,0,0,0,3Z"/><path class="cls-17" d="M558.85,659.48a28.79,28.79,0,0,0,17.44.71,1.5,1.5,0,0,0-.8-2.89,25.92,25.92,0,0,1-15.84-.71c-1.82-.66-2.6,2.24-.8,2.89Z"/><path class="cls-17" d="M565.22,666.3a62.06,62.06,0,0,0,16.2-2.23,1.51,1.51,0,0,0-.4-3l-.76-.07c-1.92-.16-1.91,2.84,0,3l.76.07-.4-3a58.93,58.93,0,0,1-15.4,2.13,1.5,1.5,0,0,0,0,3Z"/></g></g></svg>